<svg width="140" height="113" viewBox="0 0 140 113" fill="none" xmlns="http://www.w3.org/2000/svg">
<g id="&#235;&#158;&#156;&#235;&#141;&#164; 1" clip-path="url(#clip0_629_3159)">
<g id="Vector">
<path d="M34.4077 37.9305L29.4563 27.8997L40.1274 28.4255C44.97 28.6608 49.0355 24.7076 49.2841 19.6891L49.8368 8.36925L58.9183 14.317C63.0398 17.0159 68.3822 15.6169 70.8496 11.266L76.3443 1.55664L81.8554 11.2565C84.3254 15.6058 89.674 16.9956 93.7893 14.2904L102.864 8.32979L103.436 19.6459C103.691 24.664 107.756 28.6115 112.605 28.3653L123.272 27.8271L118.332 37.8637C116.139 42.3243 117.696 47.9583 121.879 50.4535L131.182 56.0107L121.888 61.5826C117.709 64.0844 116.162 69.7185 118.36 74.1746L123.313 84.206L112.642 83.682C107.797 83.4444 103.732 87.4005 103.483 92.4189L102.93 103.735L93.8491 97.7904C89.7279 95.0919 84.3849 96.4887 81.9193 100.84L76.4234 110.549L70.9119 100.849C68.4419 96.5018 63.0934 95.1118 58.98 97.8153L49.9028 103.778L49.3296 92.4626C49.0811 87.4432 45.011 83.4943 40.1642 83.7383L29.4954 84.2784L34.4349 74.2421C36.6304 69.7807 35.0706 64.149 30.8902 61.652L21.5857 56.0948L30.8799 50.5254C35.0597 48.0219 36.6115 42.3876 34.4077 37.9305Z" fill="#00AFFF"/>
<path d="M30.8902 61.652L21.5857 56.0948L30.8799 50.5254C35.0597 48.0219 36.6115 42.3876 34.4077 37.9305L29.4563 27.8997L40.1274 28.4255C44.97 28.6608 49.0355 24.7076 49.2841 19.6891L49.8368 8.36925L58.9183 14.317C63.0398 17.0159 68.3822 15.6169 70.8496 11.266L76.3443 1.55664L81.8554 11.2565C84.3254 15.6058 89.674 16.9956 93.7893 14.2904L102.864 8.32979L103.436 19.6459C103.691 24.664 107.756 28.6115 112.605 28.3653L123.272 27.8271L118.332 37.8637C116.139 42.3243 117.696 47.9583 121.879 50.4535L131.182 56.0107L121.888 61.5826C117.709 64.0844 116.162 69.7185 118.36 74.1746L123.313 84.206L112.642 83.682C107.797 83.4444 103.732 87.4005 103.483 92.4189L102.93 103.735L93.8491 97.7904C89.7279 95.0919 84.3849 96.4887 81.9193 100.84L76.4234 110.549L70.9119 100.849C68.4419 96.5018 63.0934 95.1118 58.98 97.8153L49.9028 103.778L49.3296 92.4626C49.0811 87.4432 45.011 83.4943 40.1642 83.7383L29.4954 84.2784L34.4349 74.2421M30.8902 61.652L30.4964 62.3111M30.8902 61.652C35.0706 64.149 36.6304 69.7807 34.4349 74.2421M34.4349 74.2421L33.7459 73.903" stroke="#262626" stroke-width="1.5357"/>
</g>
<path id="Vector_2" d="M65.203 48.4455L62.7426 52.9732L62.4656 54.2025L72.7558 54.2023L71.7894 50.5578L69.1806 48.1531L66.838 47.5645L65.203 48.4455Z" fill="black"/>
<path id="Vector_3" d="M62.7989 53.225C62.7989 53.225 67.4694 49.6745 72.3913 53.225L72.9219 55.8046L72.9678 56.7591H62.2856L62.465 54.2031L62.7989 53.225Z" fill="#F95555"/>
<path id="Vector_4" fill-rule="evenodd" clip-rule="evenodd" d="M72.9675 56.7585C72.9675 51.6807 70.54 47.5645 67.5455 47.5645C64.5513 47.5645 62.1238 51.6807 62.1238 56.7585H72.9675Z" stroke="black" stroke-width="1.5357" stroke-miterlimit="10"/>
<path id="Vector_5" d="M59.6897 46.0991C64.0288 46.0991 67.5465 42.5174 67.5465 38.099C67.5465 33.6808 64.0288 30.0991 59.6897 30.0991C55.3504 30.0991 51.8328 33.6808 51.8328 38.099C51.8328 42.5174 55.3504 46.0991 59.6897 46.0991Z" fill="white" stroke="black" stroke-width="1.5357" stroke-miterlimit="10"/>
<path id="Vector_6" d="M75.4036 46.0991C79.7428 46.0991 83.2603 42.5174 83.2603 38.099C83.2603 33.6808 79.7428 30.0991 75.4036 30.0991C71.0643 30.0991 67.5466 33.6808 67.5466 38.099C67.5466 42.5174 71.0643 46.0991 75.4036 46.0991Z" fill="white" stroke="black" stroke-width="1.5357" stroke-miterlimit="10"/>
<path id="Vector_7" d="M87.7686 58.3431C91.4625 58.3431 94.4571 55.175 94.4571 51.2668C94.4571 47.3586 91.4625 44.1904 87.7686 44.1904C84.0744 44.1904 81.0798 47.3586 81.0798 51.2668C81.0798 55.175 84.0744 58.3431 87.7686 58.3431Z" fill="#008BBC"/>
<path id="Vector_8" d="M47.4717 58.3431C51.1656 58.3431 54.1602 55.175 54.1602 51.2668C54.1602 47.3586 51.1656 44.1904 47.4717 44.1904C43.7776 44.1904 40.783 47.3586 40.783 51.2668C40.783 55.175 43.7776 58.3431 47.4717 58.3431Z" fill="#008BBC"/>
<path id="Vector_9" d="M63.9627 40.7903C65.8332 40.7903 67.3496 39.2463 67.3496 37.3416C67.3496 35.4371 65.8332 33.8931 63.9627 33.8931C62.0923 33.8931 60.5759 35.4371 60.5759 37.3416C60.5759 39.2463 62.0923 40.7903 63.9627 40.7903Z" fill="black"/>
<path id="Vector_10" d="M70.7384 41.546C72.6089 41.546 74.1252 40.0021 74.1252 38.0975C74.1252 36.1929 72.6089 34.6489 70.7384 34.6489C68.8679 34.6489 67.3516 36.1929 67.3516 38.0975C67.3516 40.0021 68.8679 41.546 70.7384 41.546Z" fill="black"/>
<path id="Vector_11" d="M66.055 38.0617C66.5598 38.0617 66.9689 37.6288 66.9689 37.0948C66.9689 36.5608 66.5598 36.1279 66.055 36.1279C65.5504 36.1279 65.1411 36.5608 65.1411 37.0948C65.1411 37.6288 65.5504 38.0617 66.055 38.0617Z" fill="white"/>
<path id="Vector_12" d="M69.0513 38.0617C69.5561 38.0617 69.9652 37.6288 69.9652 37.0948C69.9652 36.5608 69.5561 36.1279 69.0513 36.1279C68.5467 36.1279 68.1375 36.5608 68.1375 37.0948C68.1375 37.6288 68.5467 38.0617 69.0513 38.0617Z" fill="white"/>
<path id="Vector_13" d="M127.377 22.6359L127.377 22.6418L127.381 22.9287C127.388 23.3404 127.727 23.6688 128.139 23.662L131.967 23.5992C132.379 23.5924 132.707 23.2532 132.7 22.8415L132.696 22.5597C132.693 21.4448 132.872 20.7172 133.206 20.1508C133.542 19.5791 134.087 19.0882 134.978 18.536C136.097 17.8651 137.044 17.0491 137.706 16.0167C138.375 14.9749 138.728 13.7527 138.714 12.3191L138.714 12.3112C138.67 10.1991 137.786 8.45363 136.278 7.26058C134.784 6.079 132.733 5.47997 130.396 5.51833C128.249 5.55356 126.252 6.16631 124.771 7.40509C123.273 8.65791 122.366 10.5014 122.342 12.8502C122.339 13.0514 122.419 13.2449 122.561 13.3867C122.704 13.5286 122.898 13.6067 123.099 13.6034L127.189 13.5363C127.585 13.5298 127.907 13.2145 127.922 12.8184C127.955 11.9383 128.282 11.3393 128.72 10.9519C129.169 10.5543 129.783 10.3365 130.442 10.3257C131.911 10.3016 132.929 11.1892 132.938 12.4661L132.938 12.4806C132.97 13.662 132.21 14.5446 130.887 15.4107C129.833 16.0631 128.905 16.7763 128.274 17.9236C127.646 19.064 127.359 20.5421 127.377 22.6359ZM130.186 24.2419L130.169 24.242C128.402 24.2912 126.886 25.7039 126.932 27.4966C126.945 29.3081 128.493 30.7041 130.282 30.6748C132.037 30.6459 133.524 29.1865 133.494 27.3888C133.465 25.6093 131.92 24.2337 130.186 24.2419Z" fill="#BDEAFF" stroke="black" stroke-width="1.49126" stroke-linejoin="round"/>
<path id="Vector_14" d="M12.2755 39.5485L12.2778 39.554L12.3612 39.7593C12.5163 40.1408 12.951 40.3235 13.332 40.1673L16.0703 39.0458C16.4514 38.8898 16.6346 38.4541 16.4795 38.0725L16.398 37.8721C16.0921 37.0875 16.027 36.546 16.1025 36.0853C16.1791 35.6182 16.4155 35.1381 16.8954 34.5C17.524 33.6887 17.9925 32.8118 18.188 31.8499C18.3858 30.8767 18.2944 29.8638 17.8726 28.8072L17.8696 28.7998C17.23 27.2459 16.068 26.201 14.5992 25.7509C13.1481 25.3061 11.4635 25.4598 9.76509 26.1555C8.20281 26.7953 6.90106 27.8205 6.15766 29.1705C5.40367 30.5399 5.26378 32.1745 5.91817 33.9161C5.98893 34.1044 6.13275 34.256 6.31693 34.3365C6.50112 34.4168 6.71003 34.4191 6.89624 34.3428L9.82175 33.1446C10.1885 32.9944 10.3744 32.5833 10.245 32.2088C10.0371 31.6068 10.1051 31.1319 10.2892 30.7741C10.4804 30.4026 10.8283 30.0984 11.2676 29.9186C12.2538 29.5145 13.1209 29.8547 13.4409 30.6629L13.4464 30.6764C13.7623 31.4312 13.5093 32.212 12.8073 33.1959C12.2249 33.9694 11.7359 34.7717 11.5956 35.8181C11.4565 36.8567 11.6736 38.033 12.2755 39.5485ZM14.8416 39.6937L14.8256 39.7002C13.492 40.2641 12.74 41.7999 13.3127 43.1742C13.8657 44.5685 15.4729 45.1703 16.8323 44.6136C18.1699 44.0657 18.88 42.4999 18.3204 41.1232C17.7648 39.7565 16.1659 39.1693 14.8416 39.6937Z" fill="#BDEAFF" stroke="black" stroke-width="1.49126" stroke-linejoin="round"/>
</g>
<defs>
<clipPath id="clip0_629_3159">
<rect width="139.748" height="112.106" fill="white" transform="translate(0.125977)"/>
</clipPath>
</defs>
</svg>
