<svg width="91" height="73" viewBox="0 0 91 73" fill="none" xmlns="http://www.w3.org/2000/svg">
<path d="M74.4032 51.7073L74.4031 51.7074C73.6721 53.0444 73.0937 54.5554 72.5628 56.0966C72.3481 56.7198 72.1431 57.342 71.9389 57.9616C71.6316 58.8939 71.3264 59.8202 70.9934 60.7344C69.8875 63.7709 68.5679 66.3891 66.2719 67.7946L66.533 68.221L66.2719 67.7946C64.0595 69.149 61.3283 69.0513 58.3008 68.5569C57.4151 68.4122 56.5343 68.2397 55.6421 68.065C55.0003 67.9393 54.3527 67.8125 53.693 67.694C52.1414 67.4154 50.5752 67.194 49.0566 67.194C47.5381 67.194 45.9718 67.4154 44.4202 67.694C43.7606 67.8125 43.113 67.9393 42.4713 68.065C41.579 68.2397 40.6982 68.4122 39.8125 68.5569C36.7851 69.0513 34.0541 69.149 31.8422 67.7946L31.8421 67.7945C29.5459 66.3891 28.2262 63.7709 27.1203 60.7344C26.7874 59.8201 26.4821 58.8938 26.1749 57.9613C25.9707 57.3418 25.7657 56.7197 25.5511 56.0966C25.0203 54.5554 24.4419 53.0444 23.7109 51.7074L23.7109 51.7073C23.0003 50.4086 22.0608 49.157 21.0686 47.9265C20.6905 47.4576 20.3077 46.9952 19.9256 46.5336C19.2926 45.769 18.6615 45.0066 18.0564 44.2203C16.1236 41.7091 14.6135 39.1448 14.6135 36.2021C14.6135 33.2594 16.1236 30.695 18.0564 28.1836C18.6612 27.3976 19.2921 26.6354 19.9248 25.8711C20.3072 25.4091 20.6902 24.9463 21.0686 24.477C22.0608 23.2463 23.0004 21.9945 23.7109 20.6954L23.7109 20.6954C24.4419 19.3588 25.0203 17.848 25.5511 16.307C25.7658 15.6838 25.9709 15.0615 26.175 14.4419C26.4822 13.5097 26.7874 12.5836 27.1203 11.6696C28.2262 8.63325 29.5458 6.01507 31.8421 4.60965L31.8423 4.60953C34.0541 3.25444 36.7851 3.35216 39.8125 3.84676C40.6983 3.99147 41.5791 4.16404 42.4714 4.33885C43.1131 4.46456 43.7607 4.59143 44.4202 4.70994C45.9718 4.9887 47.5381 5.21017 49.0566 5.21017C50.5751 5.21017 52.1414 4.9887 53.693 4.70994C54.3526 4.59143 55.0001 4.46457 55.6418 4.33886C56.5341 4.16404 57.415 3.99147 58.3007 3.84676C61.3281 3.35216 64.0591 3.25444 66.2711 4.60954L66.2712 4.60965C68.5675 6.01504 69.8873 8.63323 70.9933 11.6696C71.3263 12.5837 71.6315 13.5098 71.9388 14.442C72.143 15.0616 72.348 15.6838 72.5628 16.307C73.0937 17.848 73.6721 19.3588 74.4031 20.6954C75.1137 21.9945 76.0532 23.2462 77.0454 24.4768C77.4237 24.9461 77.8068 25.4088 78.1892 25.8708C78.8218 26.6351 79.4527 27.3972 80.0576 28.1831C81.9903 30.6943 83.5004 33.2587 83.5004 36.2021C83.5004 39.1448 81.9903 41.7091 80.0576 44.2203C79.4525 45.0065 78.8214 45.769 78.1884 46.5336C77.8063 46.9952 77.4235 47.4576 77.0454 47.9265C76.0532 49.157 75.1137 50.4086 74.4032 51.7073Z" fill="#FF57DB" stroke="#262626"/>
<path d="M35.854 32.1498C38.9842 32.1498 41.5217 29.5661 41.5217 26.3789C41.5217 23.1917 38.9842 20.6079 35.854 20.6079C32.7238 20.6079 30.1863 23.1917 30.1863 26.3789C30.1863 29.5661 32.7238 32.1498 35.854 32.1498Z" fill="white" stroke="black" stroke-miterlimit="10"/>
<path d="M47.1899 32.15C50.3201 32.15 52.8577 29.5662 52.8577 26.379C52.8577 23.1918 50.3201 20.608 47.1899 20.608C44.0597 20.608 41.5222 23.1918 41.5222 26.379C41.5222 29.5662 44.0597 32.15 47.1899 32.15Z" fill="white" stroke="black" stroke-miterlimit="10"/>
<path d="M56.6014 41.2681C59.2661 41.2681 61.4264 38.9827 61.4264 36.1634C61.4264 33.3442 59.2661 31.0587 56.6014 31.0587C53.9366 31.0587 51.7764 33.3442 51.7764 36.1634C51.7764 38.9827 53.9366 41.2681 56.6014 41.2681Z" fill="#D33DB7"/>
<path d="M27.2064 41.2681C29.8711 41.2681 32.0314 38.9827 32.0314 36.1634C32.0314 33.3442 29.8711 31.0587 27.2064 31.0587C24.5416 31.0587 22.3813 33.3442 22.3813 36.1634C22.3813 38.9827 24.5416 41.2681 27.2064 41.2681Z" fill="#D33DB7"/>
<path d="M38.296 26.2237C39.6453 26.2237 40.7392 25.1099 40.7392 23.736C40.7392 22.362 39.6453 21.2482 38.296 21.2482C36.9466 21.2482 35.8528 22.362 35.8528 23.736C35.8528 25.1099 36.9466 26.2237 38.296 26.2237Z" fill="black"/>
<path d="M45.4459 26.2237C46.7952 26.2237 47.8891 25.1099 47.8891 23.736C47.8891 22.362 46.7952 21.2482 45.4459 21.2482C44.0965 21.2482 43.0027 22.362 43.0027 23.736C43.0027 25.1099 44.0965 26.2237 45.4459 26.2237Z" fill="black"/>
<path d="M41.9053 40.4483C43.6143 40.4483 44.9996 38.5299 44.9996 36.1635C44.9996 33.797 43.6143 31.8786 41.9053 31.8786C40.1964 31.8786 38.811 33.797 38.811 36.1635C38.811 38.5299 40.1964 40.4483 41.9053 40.4483Z" fill="#F95555" stroke="black" stroke-miterlimit="10"/>
<path d="M38.8283 23.2058C39.121 23.2058 39.3583 22.9548 39.3583 22.6451C39.3583 22.3354 39.121 22.0844 38.8283 22.0844C38.5356 22.0844 38.2983 22.3354 38.2983 22.6451C38.2983 22.9548 38.5356 23.2058 38.8283 23.2058Z" fill="white"/>
<path d="M44.2295 23.2058C44.5222 23.2058 44.7594 22.9548 44.7594 22.6451C44.7594 22.3354 44.5222 22.0844 44.2295 22.0844C43.9368 22.0844 43.6995 22.3354 43.6995 22.6451C43.6995 22.9548 43.9368 23.2058 44.2295 23.2058Z" fill="white"/>
<g clip-path="url(#clip0_619_2689)">
<mask id="path-11-inside-1_619_2689" fill="white">
<path fill-rule="evenodd" clip-rule="evenodd" d="M67.3209 28.3866C67.8229 29.0273 68.6523 29.3038 69.4354 29.0913C71.9252 28.419 77.4414 26.6669 80.5543 23.6866C84.6585 19.7541 83.2685 14.0045 79.3483 12.698C77.114 11.9533 75.3823 12.6771 74.3057 13.4362C74.1757 13.5298 74.0253 13.5911 73.8671 13.6152C73.7089 13.6393 73.5472 13.6255 73.3953 13.5749C73.2434 13.5242 73.1056 13.4383 72.9932 13.3239C72.8807 13.2096 72.7968 13.0702 72.7483 12.9172C72.3379 11.6624 71.3815 10.0428 69.1472 9.29814C65.2271 7.99162 60.6867 11.7648 61.6332 17.3806C62.3498 21.6372 65.7282 26.3537 67.3209 28.3866Z"/>
</mask>
<path fill-rule="evenodd" clip-rule="evenodd" d="M67.3209 28.3866C67.8229 29.0273 68.6523 29.3038 69.4354 29.0913C71.9252 28.419 77.4414 26.6669 80.5543 23.6866C84.6585 19.7541 83.2685 14.0045 79.3483 12.698C77.114 11.9533 75.3823 12.6771 74.3057 13.4362C74.1757 13.5298 74.0253 13.5911 73.8671 13.6152C73.7089 13.6393 73.5472 13.6255 73.3953 13.5749C73.2434 13.5242 73.1056 13.4383 72.9932 13.3239C72.8807 13.2096 72.7968 13.0702 72.7483 12.9172C72.3379 11.6624 71.3815 10.0428 69.1472 9.29814C65.2271 7.99162 60.6867 11.7648 61.6332 17.3806C62.3498 21.6372 65.7282 26.3537 67.3209 28.3866Z" fill="#FFCFFA"/>
<path d="M69.4354 29.0913L69.1736 28.1252L69.1726 28.1255L69.4354 29.0913ZM80.5543 23.6866L81.2456 24.4104L81.2458 24.4102L80.5543 23.6866ZM74.3057 13.4362L73.7294 12.6177L73.7218 12.6231L74.3057 13.4362ZM72.7483 12.9172L73.7009 12.6161L73.698 12.6072L72.7483 12.9172ZM61.6332 17.3806L62.6187 17.2159L62.6186 17.2157L61.6332 17.3806ZM66.535 29.0034C67.2848 29.9604 68.5271 30.3749 69.6983 30.0572L69.1726 28.1255C68.7774 28.2326 68.3609 28.0943 68.1067 27.7698L66.535 29.0034ZM69.6972 30.0575C70.9693 29.714 73.0195 29.0936 75.1571 28.174C77.281 27.2602 79.5637 26.0207 81.2456 24.4104L79.863 22.9628C78.432 24.3329 76.4002 25.4595 74.3653 26.335C72.3441 27.2046 70.3913 27.7964 69.1736 28.1252L69.6972 30.0575ZM81.2458 24.4102C85.764 20.0811 84.461 13.3479 79.6624 11.7486L79.0342 13.6474C82.0759 14.6611 83.553 19.4272 79.8627 22.963L81.2458 24.4102ZM79.6624 11.7486C77.0392 10.8743 74.9787 11.7368 73.7294 12.6177L74.8821 14.2547C75.786 13.6173 77.1888 13.0323 79.0342 13.6474L79.6624 11.7486ZM73.7218 12.6231C73.7196 12.6247 73.7172 12.6256 73.7151 12.6259L74.0191 14.6045C74.3334 14.5566 74.6317 14.4348 74.8897 14.2493L73.7218 12.6231ZM73.7151 12.6259C73.7131 12.6262 73.7111 12.626 73.7094 12.6255L73.0812 14.5243C73.3833 14.6249 73.7047 14.6524 74.0191 14.6045L73.7151 12.6259ZM73.7094 12.6255C73.7077 12.6249 73.706 12.6239 73.7045 12.6224L72.2818 14.0255C72.5052 14.2526 72.7792 14.4236 73.0812 14.5243L73.7094 12.6255ZM73.7045 12.6224C73.703 12.6209 73.7017 12.6188 73.7008 12.6161L71.7958 13.2182C71.892 13.5217 72.0584 13.7984 72.2818 14.0255L73.7045 12.6224ZM73.698 12.6072C73.2218 11.1512 72.0845 9.223 69.4613 8.34874L68.8331 10.2475C70.6785 10.8626 71.4541 12.1736 71.7987 13.2271L73.698 12.6072ZM69.4613 8.34874C64.6626 6.74943 59.6058 11.3631 60.6478 17.5454L62.6186 17.2157C61.7675 12.1664 65.7915 9.23382 68.8331 10.2475L69.4613 8.34874ZM60.6478 17.5452C61.035 19.8453 62.1258 22.2093 63.2833 24.2167C64.4483 26.237 65.7215 27.965 66.535 29.0034L68.1067 27.7698C67.3276 26.7753 66.1153 25.1286 65.0137 23.2183C63.9047 21.295 62.948 19.1724 62.6187 17.2159L60.6478 17.5452Z" fill="black" mask="url(#path-11-inside-1_619_2689)"/>
</g>
<mask id="path-13-inside-2_619_2689" fill="white">
<path fill-rule="evenodd" clip-rule="evenodd" d="M15.7409 17.5599C16.2661 17.4962 16.7001 17.1263 16.8473 16.6168C17.3168 14.998 18.2116 11.3227 17.6118 8.57476C16.8193 4.95066 13.1598 3.78188 11.1086 5.53036C9.93955 6.52691 9.75503 7.73946 9.81182 8.59794C9.81969 8.70229 9.80285 8.80704 9.76267 8.90362C9.7225 9.00019 9.66012 9.08586 9.58064 9.1536C9.50117 9.22135 9.40685 9.26926 9.30539 9.29342C9.20394 9.31757 9.09823 9.31729 8.9969 9.29259C8.16209 9.09733 6.94008 9.08374 5.77102 10.0803C3.71984 11.8288 4.27633 15.6427 7.71157 17.014C10.315 18.0539 14.0744 17.762 15.7409 17.5599Z"/>
</mask>
<path fill-rule="evenodd" clip-rule="evenodd" d="M15.7409 17.5599C16.2661 17.4962 16.7001 17.1263 16.8473 16.6168C17.3168 14.998 18.2116 11.3227 17.6118 8.57476C16.8193 4.95066 13.1598 3.78188 11.1086 5.53036C9.93955 6.52691 9.75503 7.73946 9.81182 8.59794C9.81969 8.70229 9.80285 8.80704 9.76267 8.90362C9.7225 9.00019 9.66012 9.08586 9.58064 9.1536C9.50117 9.22135 9.40685 9.26926 9.30539 9.29342C9.20394 9.31757 9.09823 9.31729 8.9969 9.29259C8.16209 9.09733 6.94008 9.08374 5.77102 10.0803C3.71984 11.8288 4.27633 15.6427 7.71157 17.014C10.315 18.0539 14.0744 17.762 15.7409 17.5599Z" fill="#FFCFFA"/>
<path d="M16.8473 16.6168L15.8889 16.3373L15.8886 16.3384L16.8473 16.6168ZM17.6118 8.57476L18.5868 8.35984L18.5868 8.35947L17.6118 8.57476ZM9.81182 8.59794L8.81577 8.66489L8.81647 8.67418L9.81182 8.59794ZM8.9969 9.29259L9.23305 8.31904L9.22401 8.31693L8.9969 9.29259ZM7.71157 17.014L8.08115 16.0832L8.08096 16.0831L7.71157 17.014ZM15.86 18.5545C16.7823 18.4426 17.5472 17.7912 17.806 16.8952L15.8886 16.3384C15.8531 16.4613 15.75 16.5498 15.6217 16.5653L15.86 18.5545ZM17.8057 16.8963C18.0483 16.0598 18.4025 14.6871 18.6188 13.1596C18.833 11.6469 18.9239 9.904 18.5868 8.35984L16.6367 8.78969C16.8994 9.99344 16.8429 11.4622 16.6423 12.8788C16.4438 14.2806 16.1158 15.555 15.8889 16.3373L17.8057 16.8963ZM18.5868 8.35947C17.6707 4.16984 13.2163 2.41972 10.4627 4.76697L11.7545 6.29375C13.1033 5.14403 15.968 5.73147 16.6368 8.79005L18.5868 8.35947ZM10.4627 4.76697C8.98245 6.02876 8.74501 7.59454 8.81581 8.66488L10.8078 8.53099C10.765 7.88438 10.8967 7.02505 11.7545 6.29375L10.4627 4.76697ZM8.81647 8.67418C8.81246 8.62096 8.82104 8.56747 8.84158 8.5181L10.6838 9.28914C10.7847 9.04661 10.8269 8.78363 10.8072 8.52169L8.81647 8.67418ZM8.84158 8.5181C8.86212 8.46872 8.89403 8.42489 8.93471 8.39021L10.2266 9.917C10.4262 9.74682 10.5829 9.53167 10.6838 9.28914L8.84158 8.5181ZM8.93471 8.39021C8.97539 8.35553 9.02365 8.33103 9.07552 8.31868L9.53527 10.2682C9.79005 10.2075 10.0269 10.0872 10.2266 9.917L8.93471 8.39021ZM9.07552 8.31868C9.12739 8.30633 9.18137 8.30649 9.23304 8.31908L8.76076 10.2661C9.01509 10.3281 9.28049 10.3288 9.53527 10.2682L9.07552 8.31868ZM9.22401 8.31693C8.18316 8.07348 6.60532 8.0551 5.12508 9.31689L6.41695 10.8437C7.27485 10.1124 8.14101 10.1212 8.7698 10.2683L9.22401 8.31693ZM5.12508 9.31689C2.37147 11.6642 3.37082 16.3595 7.34217 17.9449L8.08096 16.0831C5.18185 14.9258 5.06822 11.9934 6.41695 10.8437L5.12508 9.31689ZM7.34198 17.9448C8.80527 18.5293 10.5337 18.7215 12.0556 18.7543C13.5924 18.7874 14.9992 18.6589 15.86 18.5545L15.6217 16.5653C14.816 16.663 13.5099 16.7815 12.0996 16.7511C10.6743 16.7204 9.22134 16.5386 8.08115 16.0832L7.34198 17.9448Z" fill="black" mask="url(#path-13-inside-2_619_2689)"/>
<defs>
<clipPath id="clip0_619_2689">
<rect width="24.4265" height="24.4991" fill="white" transform="matrix(0.948698 0.316184 -0.31408 0.949396 63.6943 4.01498)"/>
</clipPath>
</defs>
</svg>
