<svg width="390" height="183" viewBox="0 0 390 183" fill="none" xmlns="http://www.w3.org/2000/svg">
<path d="M56.6291 54.4538C60.1331 50.9517 58.5606 46.6641 53 44.2315C54.839 43.1549 56.6792 42.0772 58.5204 41C66.0234 45.0627 67.1181 51.3626 61.2408 56C59.7043 55.4846 58.1667 54.9686 56.6291 54.4538Z" fill="#FF57DB"/>
<path d="M94.8613 29.0001L88 29.2581L88.1262 32.7552L94.9875 32.4972L94.8613 29.0001Z" fill="#FAF307"/>
<path d="M27.5238 63L26 67.8728L35.562 70.9872L37.0858 66.1144L27.5238 63Z" fill="#FAF307"/>
<path d="M91.8363 4.99989L88 11.3696L96.5985 16.7634L100.435 10.3937L91.8363 4.99989Z" fill="#45DE5F"/>
<path d="M35.9928 106L32 110.797L37.4361 115.51L41.4289 110.713L35.9928 106Z" fill="#00AFFF"/>
<path d="M57.667 9.61153C65.3164 7.48503 71.919 11.22 74.0942 15.9518C72.3836 15.9795 70.9094 16.4987 69.7811 17.2683C67.3221 14.0145 60.9117 12.2584 55 16.5933C55.3595 14.2061 56.2448 11.8096 57.667 9.61153Z" fill="#00AFFF"/>
<path d="M55.5212 75.295C61.8535 73.9635 67.0417 77.3453 68.5747 81.3133C67.1819 81.2476 65.9552 81.5902 64.9987 82.1579C63.1604 79.3818 58.0288 77.6165 53 80.8379C53.4127 78.9122 54.2527 77.0073 55.52 75.2938L55.5212 75.295Z" fill="#45DE5F"/>
<path d="M316.973 9.00011L312 10.7051L315.345 20.8671L320.318 19.1621L316.973 9.00011Z" fill="#FAF307"/>
<path d="M338.974 56L338 60.2964L350.633 63.28L351.607 58.9836L338.974 56Z" fill="#FF57DB"/>
<path d="M314.557 32C319.978 34.1496 322.28 39.291 321.542 43.0525C320.52 42.3071 319.429 41.9563 318.433 41.909C318.373 38.8952 315.342 35.0069 310 34.9319C311.232 33.6823 312.779 32.6623 314.557 32Z" fill="#00AFFF"/>
<path d="M363 90.9721C359.396 93.7345 359.11 97.8337 362.238 100.73C360.592 101.487 358.946 102.244 357.301 103C353.335 98.3807 354.609 92.5066 360.254 89C361.169 89.657 362.085 90.3145 362.999 90.9727L363 90.9721Z" fill="#FAF307"/>
<path d="M37.7772 39.1628C38.9022 35.4221 37.2933 31.453 34 29.6853C34.7326 28.4576 35.4686 27.2277 36.2035 26C40.7925 29.1349 42.5358 35.0933 40.4182 40.1736C39.5398 39.8367 38.6579 39.4986 37.7761 39.1628H37.7772Z" fill="#45DE5F"/>
<path d="M335.88 41.0001L334 42.916L337.759 46.7575L339.639 44.8415L335.88 41.0001Z" fill="#FAF307"/>
<path d="M334.822 74.9999L334 84.7402L337.181 85.0197L338.003 75.2794L334.822 74.9999Z" fill="#00AFFF"/>
<path d="M291.298 12L288 15.6479L294.588 21.8521L297.886 18.2041L291.298 12Z" fill="#45DE5F"/>
<path d="M343.874 20.9999L342 29.5911L346.509 30.6153L348.383 22.0242L343.874 20.9999Z" fill="#FF57DB"/>
</svg>
