<svg width="91" height="73" viewBox="0 0 91 73" fill="none" xmlns="http://www.w3.org/2000/svg">
<path d="M78.7474 45.8555L78.2268 46.0722L78.5042 46.5631C80.8661 50.7431 81.9466 54.2597 82.0672 56.9923C82.1877 59.7206 81.3544 61.6182 79.943 62.6841C78.5238 63.756 76.4013 64.0773 73.7579 63.3918C71.1178 62.7072 68.0117 61.028 64.717 58.1898L64.3964 57.9136L64.071 58.1842C60.5408 61.1193 55.6181 62.6059 50.6652 62.6059C45.7123 62.6059 40.7895 61.1193 37.2593 58.1842L36.9339 57.9136L36.6133 58.1898C33.3186 61.028 30.2125 62.7072 27.5724 63.3918C24.9289 64.0773 22.8065 63.7559 21.3873 62.684C19.9759 61.6181 19.1426 59.7206 19.2631 56.9923C19.3837 54.2597 20.4642 50.7431 22.8261 46.5631L23.1035 46.0722L22.5829 45.8555C16.1437 43.1762 13.1528 39.5556 13.1528 36.126C13.1528 32.6964 16.1437 29.0758 22.5829 26.3965L23.1035 26.1799L22.8261 25.6889C20.4642 21.5095 19.3837 17.9931 19.2631 15.2605C19.1426 12.5323 19.9759 10.6346 21.3873 9.56857C22.8066 8.49656 24.929 8.1751 27.5724 8.86056C30.2125 9.54512 33.3186 11.2244 36.6133 14.063L36.9339 14.3392L37.2593 14.0686C40.7895 11.1335 45.7122 9.6468 50.6651 9.6468C55.618 9.6468 60.5407 11.1335 64.071 14.0686L64.3964 14.3392L64.717 14.063C68.0117 11.2244 71.1178 9.54513 73.7579 8.86057C76.4013 8.17512 78.5237 8.49659 79.943 9.5686C81.3544 10.6346 82.1877 12.5323 82.0672 15.2606C81.9466 17.9932 80.8661 21.5095 78.5042 25.689L78.2267 26.1799L78.7474 26.3966C85.1867 29.0759 88.1776 32.6965 88.1776 36.126C88.1776 39.5556 85.1867 43.1762 78.7474 45.8555Z" fill="#45DE5F" stroke="#131313"/>
<path d="M44.4653 41.8889C47.8905 41.8889 50.6672 37.9185 50.6672 33.0208C50.6672 28.123 47.8905 24.1526 44.4653 24.1526C41.0401 24.1526 38.2634 28.123 38.2634 33.0208C38.2634 37.9185 41.0401 41.8889 44.4653 41.8889Z" fill="white" stroke="#262626" stroke-miterlimit="10"/>
<path d="M56.8686 41.8889C60.2938 41.8889 63.0705 37.9185 63.0705 33.0208C63.0705 28.123 60.2938 24.1526 56.8686 24.1526C53.4434 24.1526 50.6667 28.123 50.6667 33.0208C50.6667 37.9185 53.4434 41.8889 56.8686 41.8889Z" fill="white" stroke="#262626" stroke-miterlimit="10"/>
<path d="M42.2016 38.3086C44.3766 38.3086 46.1398 36.0831 46.1398 33.3378C46.1398 30.5925 44.3766 28.367 42.2016 28.367C40.0266 28.367 38.2634 30.5925 38.2634 33.3378C38.2634 36.0831 40.0266 38.3086 42.2016 38.3086Z" fill="#0A0F09"/>
<path d="M54.6049 38.3086C56.7799 38.3086 58.5431 36.0831 58.5431 33.3378C58.5431 30.5925 56.7799 28.367 54.6049 28.367C52.4299 28.367 50.6667 30.5925 50.6667 33.3378C50.6667 36.0831 52.4299 38.3086 54.6049 38.3086Z" fill="#0A0F09"/>
<path d="M51.687 46.9146C50.3057 47.016 49.1104 46.0317 49.0174 44.716C48.9244 43.4004 49.9688 42.2516 51.3502 42.1501" stroke="#030009" stroke-miterlimit="10" stroke-linecap="round"/>
<path d="M67.6615 48.4078C70.2309 48.4078 72.3137 46.2042 72.3137 43.4859C72.3137 40.7676 70.2309 38.564 67.6615 38.564C65.0921 38.564 63.0093 40.7676 63.0093 43.4859C63.0093 46.2042 65.0921 48.4078 67.6615 48.4078Z" fill="#39B24A"/>
<path d="M33.8785 48.4078C36.4479 48.4078 38.5308 46.2042 38.5308 43.4859C38.5308 40.7676 36.4479 38.564 33.8785 38.564C31.3092 38.564 29.2263 40.7676 29.2263 43.4859C29.2263 46.2042 31.3092 48.4078 33.8785 48.4078Z" fill="#39B24A"/>
<path d="M39.6956 32.8419C40.1373 32.8419 40.4954 32.4631 40.4954 31.9958C40.4954 31.5284 40.1373 31.1496 39.6956 31.1496C39.2538 31.1496 38.8958 31.5284 38.8958 31.9958C38.8958 32.4631 39.2538 32.8419 39.6956 32.8419Z" fill="white"/>
<path d="M52.2686 32.8419C52.7103 32.8419 53.0684 32.4631 53.0684 31.9958C53.0684 31.5284 52.7103 31.1496 52.2686 31.1496C51.8268 31.1496 51.4688 31.5284 51.4688 31.9958C51.4688 32.4631 51.8268 32.8419 52.2686 32.8419Z" fill="white"/>
<g clip-path="url(#clip0_619_2671)">
<path d="M83.708 25.6848C83.4696 25.7185 83.2925 25.9226 83.2925 26.1633V26.1643C83.2925 26.405 83.4696 26.609 83.7079 26.6428C85.0029 26.8265 86.3322 27.2629 87.2575 28.1917C88.3866 29.325 88.3433 30.2374 88.0236 30.7793C87.6683 31.3814 86.8873 31.7141 86.1983 31.5496C86.0351 31.5107 85.8633 31.5592 85.7445 31.6778C85.6258 31.7964 85.5771 31.9681 85.6159 32.1314C85.7808 32.8257 85.4475 33.6106 84.8483 33.9667C84.56 34.1381 84.2018 34.2157 83.7834 34.1272C83.3592 34.0374 82.8442 33.7696 82.2748 33.198C81.3509 32.2707 80.9149 30.9385 80.7319 29.6392C80.6964 29.3879 80.4727 29.2068 80.2195 29.2245C79.9745 29.2417 79.7827 29.4394 79.7705 29.6822L79.7679 29.7005C79.7639 29.7277 79.7593 29.7584 79.7563 29.778C79.5607 31.0325 79.1198 32.3038 78.2298 33.1971C77.6603 33.7687 77.1454 34.0364 76.7213 34.1262C76.303 34.2148 75.9449 34.1371 75.6566 33.9658C75.0576 33.6097 74.7242 32.8247 74.8888 32.1302C74.9275 31.9669 74.8787 31.7952 74.7598 31.6767C74.641 31.5581 74.4692 31.5097 74.306 31.5487C73.6173 31.7135 72.8363 31.3809 72.481 30.7787C72.1613 30.2367 72.118 29.324 73.2471 28.1907L73.2472 28.1906C74.1715 27.262 75.5006 26.8255 76.7966 26.6419C77.035 26.6081 77.2121 26.4041 77.2121 26.1633C77.2121 25.9226 77.035 25.7186 76.7967 25.6848C75.5016 25.5011 74.1724 25.0647 73.2471 24.1359C72.118 23.0026 72.1613 22.0899 72.481 21.5479C72.8363 20.9457 73.6173 20.6131 74.306 20.7779C74.4693 20.8169 74.6411 20.7685 74.7599 20.6499C74.8788 20.5312 74.9275 20.3595 74.8887 20.1961C74.7238 19.5019 75.0571 18.7169 75.6562 18.3609C75.9445 18.1895 76.3028 18.1118 76.7212 18.2004C77.1454 18.2902 77.6603 18.5579 78.2298 19.1295C79.2277 20.1312 79.6578 21.6052 79.8125 22.9918C79.8391 23.23 80.0362 23.4127 80.2758 23.4212C80.5153 23.4297 80.7249 23.2614 80.7682 23.0257C80.8249 22.7178 80.978 21.9567 81.2379 21.1537C81.5047 20.3292 81.8574 19.5484 82.2748 19.1295C82.8443 18.5579 83.3591 18.2902 83.7833 18.2004C84.2015 18.1118 84.5597 18.1895 84.848 18.3608C85.447 18.7169 85.7804 19.5019 85.6158 20.1964C85.5771 20.3597 85.6259 20.5314 85.7447 20.65C85.8635 20.7685 86.0354 20.8169 86.1986 20.7779C86.8873 20.6131 87.6683 20.9457 88.0235 21.5479C88.3433 22.0899 88.3866 23.0026 87.2575 24.1359L87.2574 24.136C86.3331 25.0646 85.004 25.5011 83.708 25.6848Z" fill="#81FFA4" stroke="black" stroke-width="0.966667" stroke-linejoin="round"/>
</g>
<g clip-path="url(#clip1_619_2671)">
<path d="M12.3434 14.2105C12.1173 14.2425 11.9493 14.436 11.9493 14.6643V14.665C11.9493 14.8933 12.1173 15.0868 12.3433 15.1188C13.3532 15.2621 14.3777 15.6011 15.0872 16.3133C15.957 17.1863 15.9047 17.8646 15.677 18.2506C15.4155 18.6937 14.8369 18.9405 14.3291 18.8193C14.1743 18.7823 14.0114 18.8283 13.8988 18.9408C13.7861 19.0533 13.74 19.2161 13.7767 19.371C13.8984 19.8833 13.6509 20.465 13.2101 20.727C13.0004 20.8516 12.7391 20.9092 12.4299 20.8437C12.1153 20.7771 11.7238 20.5764 11.2842 20.1352C10.5757 19.4241 10.237 18.3972 10.0943 17.384C10.0607 17.1457 9.84845 16.9739 9.60835 16.9907C9.37731 17.0069 9.19619 17.1924 9.18285 17.4209L9.18128 17.4317L9.17235 17.4917C9.17233 17.4918 9.17231 17.4919 9.17229 17.492C9.0198 18.4698 8.67753 19.4495 7.9951 20.1345C7.55551 20.5757 7.16405 20.7764 6.84944 20.843C6.54038 20.9084 6.27914 20.8509 6.06949 20.7263C5.62879 20.4643 5.38116 19.8825 5.5026 19.37C5.5393 19.2151 5.49302 19.0523 5.38036 18.9399C5.26769 18.8275 5.10476 18.7815 4.94997 18.8186C4.44233 18.94 3.86379 18.6934 3.60232 18.2502C3.37453 17.864 3.32233 17.1855 4.19208 16.3125L4.19223 16.3124C4.90092 15.6004 5.92518 15.2613 6.93592 15.1181C7.16193 15.0861 7.32992 14.8926 7.32993 14.6643C7.32995 14.436 7.16198 14.2426 6.93597 14.2105C5.92604 14.0673 4.90161 13.7282 4.19208 13.016C3.32233 12.1431 3.37453 11.4645 3.60232 11.0784C3.86379 10.6352 4.44233 10.3885 4.94997 10.51C5.1048 10.5471 5.26777 10.5011 5.38044 10.3886C5.49311 10.2761 5.53934 10.1132 5.50255 9.95835C5.38087 9.44599 5.62839 8.8643 6.06918 8.60233C6.27888 8.47769 6.54021 8.42018 6.84935 8.48562C7.16402 8.55223 7.55552 8.75289 7.9951 9.1941C8.76056 9.9624 9.09524 11.0992 9.21603 12.1815C9.24124 12.4074 9.42816 12.5806 9.6553 12.5887C9.88243 12.5967 10.0812 12.4371 10.1223 12.2136C10.1665 11.9734 10.286 11.3792 10.4887 10.753C10.698 10.1064 10.9705 9.50891 11.2842 9.1941C11.7238 8.75287 12.1152 8.55222 12.4298 8.48561C12.7389 8.42018 13.0001 8.47769 13.2098 8.60231C13.6505 8.86427 13.8981 9.44605 13.7767 9.95857C13.74 10.1134 13.7863 10.2763 13.8989 10.3887C14.0116 10.5011 14.1745 10.547 14.3293 10.51C14.837 10.3885 15.4155 10.6352 15.677 11.0784C15.9047 11.4645 15.957 12.1431 15.0872 13.016L15.0871 13.0162C14.3784 13.7282 13.3541 14.0672 12.3434 14.2105Z" fill="#81FFA4" stroke="black" stroke-width="0.916667" stroke-linejoin="round"/>
</g>
<defs>
<clipPath id="clip0_619_2671">
<rect width="16.9041" height="16.9669" fill="white" transform="translate(71.8008 17.6801)"/>
</clipPath>
<clipPath id="clip1_619_2671">
<rect width="13.2797" height="13.329" fill="white" transform="translate(3 8)"/>
</clipPath>
</defs>
</svg>
