<svg width="61" height="42" viewBox="0 0 61 42" fill="none" xmlns="http://www.w3.org/2000/svg">
<rect width="61" height="42" fill="#F5F5F5"/>
<g id="&#237;&#134;&#160;&#236;&#138;&#164;&#237;&#138;&#184; &#237;&#140;&#157;&#236;&#151;&#133;_&#237;&#153;&#136;">
<rect x="-24" y="-18" width="342" height="78" rx="12" fill="#E5E5E5"/>
<g id="Frame 637">
<g id="Frame">
<g id="Group 612">
<path id="Vector" d="M52.2446 28.3135L51.8963 28.4505L52.0883 28.7718C53.9568 31.8973 54.8133 34.5295 54.9089 36.5777C55.0043 38.62 54.3457 40.0558 53.2071 40.8685C52.0589 41.6882 50.3503 41.9267 48.2442 41.4105C46.1416 40.8951 43.677 39.6337 41.0689 37.5101L40.872 37.3498L40.6723 37.5067C37.8668 39.7114 33.957 40.8265 30.0265 40.8265C26.096 40.8265 22.1862 39.7114 19.3807 37.5067L19.181 37.3498L18.9841 37.5101C16.376 39.6337 13.9114 40.8951 11.8088 41.4105C9.70265 41.9267 7.99406 41.6882 6.84587 40.8685C5.70728 40.0557 5.04869 38.6199 5.14406 36.5777C5.23971 34.5295 6.09622 31.8973 7.96463 28.7718L8.1567 28.4505L7.80835 28.3135C2.70494 26.3063 0.317451 23.5858 0.317451 20.9998C0.317451 18.4138 2.70494 15.6934 7.80834 13.6862L8.15672 13.5492L7.96462 13.2279C6.09622 10.1028 5.23971 7.47077 5.14406 5.42262C5.04869 3.38039 5.70728 1.94451 6.84588 1.13162C7.99408 0.311882 9.70266 0.0732844 11.8088 0.58948C13.9114 1.10481 16.376 2.36631 18.9841 4.49014L19.181 4.6505L19.3807 4.49358C22.1861 2.28881 26.0959 1.17369 30.0265 1.17369C33.957 1.17369 37.8668 2.28881 40.6723 4.49358L40.872 4.6505L41.0689 4.49014C43.677 2.36631 46.1416 1.10481 48.2442 0.589487C50.3503 0.0732969 52.0589 0.3119 53.2071 1.13164C54.3457 1.94454 55.0043 3.38042 54.9089 5.42266C54.8133 7.47082 53.9568 10.1029 52.0884 13.228L51.8963 13.5493L52.2446 13.6863C57.3481 15.6934 59.7356 18.4139 59.7356 20.9999C59.7356 23.5858 57.3481 26.3063 52.2446 28.3135Z" fill="#45DE5F" stroke="#131313" stroke-width="0.634902"/>
<g id="Group">
<path id="Vector_2" d="M24.1929 25.3027C26.8985 25.3027 29.0919 22.3383 29.0919 18.6815C29.0919 15.0246 26.8985 12.0602 24.1929 12.0602C21.4873 12.0602 19.2939 15.0246 19.2939 18.6815C19.2939 22.3383 21.4873 25.3027 24.1929 25.3027Z" fill="white" stroke="#262626" stroke-width="0.59964" stroke-miterlimit="10"/>
<path id="Vector_3" d="M33.9903 25.3027C36.6959 25.3027 38.8892 22.3383 38.8892 18.6815C38.8892 15.0246 36.6959 12.0602 33.9903 12.0602C31.2846 12.0602 29.0913 15.0246 29.0913 18.6815C29.0913 22.3383 31.2846 25.3027 33.9903 25.3027Z" fill="white" stroke="#262626" stroke-width="0.59964" stroke-miterlimit="10"/>
<path id="Vector_4" d="M22.4048 22.6294C24.1228 22.6294 25.5156 20.9678 25.5156 18.9181C25.5156 16.8684 24.1228 15.2067 22.4048 15.2067C20.6867 15.2067 19.2939 16.8684 19.2939 18.9181C19.2939 20.9678 20.6867 22.6294 22.4048 22.6294Z" fill="#0A0F09"/>
<path id="Vector_5" d="M32.2021 22.6294C33.9202 22.6294 35.313 20.9678 35.313 18.9181C35.313 16.8684 33.9202 15.2067 32.2021 15.2067C30.4841 15.2067 29.0913 16.8684 29.0913 18.9181C29.0913 20.9678 30.4841 22.6294 32.2021 22.6294Z" fill="#0A0F09"/>
<path id="Vector_6" d="M30.7864 26.3498C30.7866 27.3878 29.9452 28.2294 28.9072 28.2296C27.8692 28.2297 27.0276 27.3884 27.0274 26.3504" stroke="#030009" stroke-width="0.634902" stroke-miterlimit="10" stroke-linecap="round"/>
<path id="Vector_7" d="M42.5157 30.1699C44.5453 30.1699 46.1905 28.5246 46.1905 26.4951C46.1905 24.4655 44.5453 22.8202 42.5157 22.8202C40.4861 22.8202 38.8408 24.4655 38.8408 26.4951C38.8408 28.5246 40.4861 30.1699 42.5157 30.1699Z" fill="#39B24A"/>
<path id="Vector_8" d="M15.8301 30.1699C17.8597 30.1699 19.505 28.5246 19.505 26.4951C19.505 24.4655 17.8597 22.8202 15.8301 22.8202C13.8006 22.8202 12.1553 24.4655 12.1553 26.4951C12.1553 28.5246 13.8006 30.1699 15.8301 30.1699Z" fill="#39B24A"/>
<path id="Vector_9" d="M20.425 18.5479C20.7739 18.5479 21.0568 18.265 21.0568 17.9161C21.0568 17.5672 20.7739 17.2843 20.425 17.2843C20.0761 17.2843 19.7932 17.5672 19.7932 17.9161C19.7932 18.265 20.0761 18.5479 20.425 18.5479Z" fill="white"/>
<path id="Vector_10" d="M30.3566 18.5479C30.7055 18.5479 30.9884 18.265 30.9884 17.9161C30.9884 17.5672 30.7055 17.2843 30.3566 17.2843C30.0077 17.2843 29.7249 17.5672 29.7249 17.9161C29.7249 18.265 30.0077 18.5479 30.3566 18.5479Z" fill="white"/>
</g>
</g>
</g>
</g>
</g>
</svg>
