<svg width="91" height="73" viewBox="0 0 91 73" fill="none" xmlns="http://www.w3.org/2000/svg">
<path d="M22.3232 24.6993L19.099 18.1675L26.0477 18.5099C29.2011 18.6631 31.8484 16.0889 32.0103 12.821L32.3702 5.44984L38.2838 9.32287C40.9676 11.0803 44.4464 10.1693 46.0531 7.33614L49.6311 1.01367L53.2198 7.32991C54.8282 10.1621 58.311 11.0671 60.9908 9.30555L66.9002 5.42415L67.2724 12.7929C67.4382 16.0605 70.0854 18.631 73.243 18.4707L80.1891 18.1202L76.9726 24.6558C75.5445 27.5604 76.5583 31.2291 79.282 32.8539L85.3398 36.4726L79.2876 40.1008C76.5664 41.7299 75.5594 45.3987 76.9902 48.3004L80.2156 54.8325L73.267 54.4913C70.112 54.3366 67.465 56.9127 67.3032 60.1805L66.9432 67.5491L61.0297 63.6783C58.3461 61.9211 54.8669 62.8307 53.2614 65.6642L49.6826 71.9864L46.0937 65.67C44.4853 62.8392 41.0025 61.9341 38.324 63.6945L32.4132 67.5773L32.0399 60.209C31.8781 56.9405 29.2278 54.3691 26.0717 54.528L19.1245 54.8797L22.3409 48.3443C23.7706 45.4392 22.7549 41.772 20.0327 40.146L13.9739 36.5273L20.026 32.9007C22.7478 31.2705 23.7583 27.6016 22.3232 24.6993Z" fill="#00AFFF"/>
<path d="M20.0327 40.146L13.9739 36.5273L20.026 32.9007C22.7478 31.2705 23.7583 27.6016 22.3232 24.6993L19.099 18.1675L26.0477 18.5099C29.2011 18.6631 31.8484 16.0889 32.0103 12.821L32.3702 5.44984L38.2838 9.32287C40.9676 11.0803 44.4464 10.1693 46.0531 7.33614L49.6311 1.01367L53.2198 7.32991C54.8282 10.1621 58.311 11.0671 60.9908 9.30555L66.9002 5.42415L67.2724 12.7929C67.4382 16.0605 70.0854 18.631 73.243 18.4707L80.1891 18.1202L76.9726 24.6558C75.5445 27.5604 76.5583 31.2291 79.282 32.8539L85.3398 36.4726L79.2876 40.1008C76.5664 41.7299 75.5594 45.3987 76.9902 48.3004L80.2156 54.8325L73.267 54.4913C70.112 54.3366 67.465 56.9127 67.3032 60.1805L66.9432 67.5491L61.0297 63.6783C58.3461 61.9211 54.8669 62.8307 53.2614 65.6642L49.6826 71.9864L46.0937 65.67C44.4853 62.8392 41.0025 61.9341 38.324 63.6945L32.4132 67.5773L32.0399 60.209C31.8781 56.9405 29.2278 54.3691 26.0717 54.528L19.1245 54.8797L22.3409 48.3443M20.0327 40.146L19.7763 40.5752M20.0327 40.146C22.7549 41.772 23.7706 45.4392 22.3409 48.3443M22.3409 48.3443L21.8923 48.1235" stroke="#262626"/>
<path d="M42.3763 31.5464L40.7742 34.4947L40.5938 35.2952L47.2944 35.2951L46.6651 32.9219L44.9664 31.356L43.441 30.9727L42.3763 31.5464Z" fill="black"/>
<path d="M40.8108 34.6584C40.8108 34.6584 43.8521 32.3464 47.0571 34.6584L47.4026 36.3382L47.4325 36.9597H40.4766L40.5934 35.2953L40.8108 34.6584Z" fill="#F95555"/>
<path fill-rule="evenodd" clip-rule="evenodd" d="M47.4322 36.9596C47.4322 33.6531 45.8515 30.9727 43.9016 30.9727C41.9518 30.9727 40.3711 33.6531 40.3711 36.9596H47.4322Z" stroke="black" stroke-miterlimit="10"/>
<path d="M38.7861 30.0183C41.6116 30.0183 43.9022 27.686 43.9022 24.8089C43.9022 21.9319 41.6116 19.5996 38.7861 19.5996C35.9605 19.5996 33.6699 21.9319 33.6699 24.8089C33.6699 27.686 35.9605 30.0183 38.7861 30.0183Z" fill="white" stroke="black" stroke-miterlimit="10"/>
<path d="M49.0185 30.0183C51.8441 30.0183 54.1346 27.686 54.1346 24.8089C54.1346 21.9319 51.8441 19.5996 49.0185 19.5996C46.1929 19.5996 43.9023 21.9319 43.9023 24.8089C43.9023 27.686 46.1929 30.0183 49.0185 30.0183Z" fill="white" stroke="black" stroke-miterlimit="10"/>
<path d="M57.0703 37.9912C59.4757 37.9912 61.4257 35.9282 61.4257 33.3833C61.4257 30.8384 59.4757 28.7754 57.0703 28.7754C54.6648 28.7754 52.7148 30.8384 52.7148 33.3833C52.7148 35.9282 54.6648 37.9912 57.0703 37.9912Z" fill="#008BBC"/>
<path d="M30.8301 37.9912C33.2355 37.9912 35.1855 35.9282 35.1855 33.3833C35.1855 30.8384 33.2355 28.7754 30.8301 28.7754C28.4246 28.7754 26.4746 30.8384 26.4746 33.3833C26.4746 35.9282 28.4246 37.9912 30.8301 37.9912Z" fill="#008BBC"/>
<path d="M41.5687 26.5616C42.7867 26.5616 43.7741 25.5562 43.7741 24.3159C43.7741 23.0757 42.7867 22.0703 41.5687 22.0703C40.3507 22.0703 39.3633 23.0757 39.3633 24.3159C39.3633 25.5562 40.3507 26.5616 41.5687 26.5616Z" fill="black"/>
<path d="M45.9808 27.0537C47.1988 27.0537 48.1862 26.0483 48.1862 24.8081C48.1862 23.5679 47.1988 22.5625 45.9808 22.5625C44.7628 22.5625 43.7754 23.5679 43.7754 24.8081C43.7754 26.0483 44.7628 27.0537 45.9808 27.0537Z" fill="black"/>
<path d="M42.931 24.7846C43.2597 24.7846 43.5261 24.5027 43.5261 24.155C43.5261 23.8073 43.2597 23.5254 42.931 23.5254C42.6024 23.5254 42.3359 23.8073 42.3359 24.155C42.3359 24.5027 42.6024 24.7846 42.931 24.7846Z" fill="white"/>
<path d="M44.8822 24.7846C45.2109 24.7846 45.4773 24.5027 45.4773 24.155C45.4773 23.8073 45.2109 23.5254 44.8822 23.5254C44.5536 23.5254 44.2871 23.8073 44.2871 24.155C44.2871 24.5027 44.5536 24.7846 44.8822 24.7846Z" fill="white"/>
<path d="M82.862 14.7398L82.8621 14.7437L82.8651 14.9305C82.8695 15.1986 83.0904 15.4124 83.3585 15.408L85.851 15.3671C86.1191 15.3627 86.333 15.1418 86.3286 14.8737L86.3256 14.6902C86.3241 13.9642 86.4402 13.4904 86.6576 13.1216C86.877 12.7493 87.2314 12.4297 87.8119 12.0701C88.5402 11.6332 89.1569 11.1019 89.5884 10.4296C90.0239 9.75122 90.2538 8.95534 90.2445 8.02183L90.2444 8.01668C90.216 6.64136 89.6404 5.50476 88.6582 4.72788C87.6854 3.95847 86.3497 3.5684 84.8282 3.59338C83.4302 3.61632 82.1294 4.01532 81.1652 4.82198C80.19 5.63778 79.5992 6.8382 79.5833 8.36769C79.5819 8.4987 79.6335 8.62469 79.7264 8.71705C79.8194 8.80941 79.9457 8.8603 80.0767 8.85815L82.7396 8.81444C82.9977 8.81021 83.2073 8.60488 83.2169 8.347C83.2383 7.7739 83.4518 7.38383 83.7367 7.13154C84.0291 6.87263 84.4291 6.73083 84.8578 6.7238C85.8148 6.70809 86.4774 7.28611 86.4833 8.11759L86.4835 8.12702C86.5039 8.89629 86.0093 9.47103 85.148 10.035C84.4614 10.4598 83.8574 10.9242 83.4461 11.6713C83.0373 12.4139 82.8508 13.3764 82.862 14.7398ZM84.6915 15.7856L84.6803 15.7857C83.5294 15.8177 82.5427 16.7376 82.5726 17.905C82.581 19.0846 83.5892 19.9936 84.7541 19.9745C85.8965 19.9557 86.8647 19.0054 86.8456 17.8348C86.8268 16.676 85.8203 15.7803 84.6915 15.7856Z" fill="#BDEAFF" stroke="black" stroke-width="0.971066" stroke-linejoin="round"/>
<path d="M7.91138 25.7529L7.91284 25.7565L7.96718 25.8902C8.06817 26.1386 8.3512 26.2576 8.59934 26.1559L10.3824 25.4256C10.6306 25.324 10.7499 25.0403 10.6489 24.7918L10.5958 24.6613C10.3966 24.1504 10.3542 23.7978 10.4034 23.4978C10.4533 23.1936 10.6072 22.881 10.9197 22.4655C11.329 21.9372 11.6341 21.3662 11.7614 20.7398C11.8902 20.1061 11.8307 19.4465 11.556 18.7585L11.5541 18.7537C11.1376 17.7418 10.3809 17.0614 9.42446 16.7683C8.47959 16.4787 7.38259 16.5788 6.27665 17.0318C5.25934 17.4484 4.41168 18.116 3.9276 18.9951C3.43662 19.8868 3.34553 20.9512 3.77165 22.0853C3.81773 22.2079 3.91138 22.3066 4.03131 22.359C4.15125 22.4113 4.28729 22.4128 4.40854 22.3631L6.31355 21.5829C6.55234 21.4851 6.6734 21.2174 6.58916 20.9735C6.4538 20.5815 6.49804 20.2723 6.61793 20.0393C6.74243 19.7974 6.96896 19.5993 7.25505 19.4822C7.89724 19.2191 8.46187 19.4406 8.67024 19.9669L8.6738 19.9757C8.87954 20.4672 8.71479 20.9756 8.25768 21.6163C7.87841 22.12 7.55996 22.6424 7.46865 23.3238C7.37802 24.0001 7.51943 24.7661 7.91138 25.7529ZM9.5823 25.8475L9.57194 25.8517C8.70349 26.2189 8.2138 27.219 8.58675 28.1139C8.94683 29.0218 9.99341 29.4137 10.8786 29.0512C11.7496 28.6944 12.212 27.6748 11.8476 26.7783C11.4858 25.8884 10.4447 25.506 9.5823 25.8475Z" fill="#BDEAFF" stroke="black" stroke-width="0.971066" stroke-linejoin="round"/>
</svg>
