<svg width="91" height="73" viewBox="0 0 91 73" fill="none" xmlns="http://www.w3.org/2000/svg">
<path d="M65.0758 54.4144C65.0761 54.415 65.0764 54.4155 65.0767 54.4161L65.076 54.4148L65.0758 54.4144ZM30.6 55.0559C30.5994 55.0562 30.5988 55.0566 30.5983 55.0569L30.5996 55.0561L30.6 55.0559ZM64.3984 17.9428C64.3988 17.9426 64.3992 17.9423 64.3996 17.9421L64.3989 17.9426L64.3984 17.9428ZM75.7383 30.3753C78.882 30.3753 81.48 33.071 81.4999 36.4609V36.5C81.4999 39.9107 78.8941 42.6246 75.7382 42.6246H70.9297C70.6472 42.6246 70.4745 42.8328 70.4283 43.0154C70.3824 43.1968 70.434 43.4467 70.66 43.585L70.6606 43.5854L74.8251 46.1268C77.5829 47.8127 78.5459 51.5642 76.9381 54.5103C75.3384 57.439 71.8258 58.4206 69.0851 56.747C69.085 56.747 69.085 56.747 69.085 56.7469L64.9214 54.2028L64.9204 54.2022C64.6815 54.0569 64.4185 54.1389 64.2768 54.2886C64.1385 54.4347 64.0792 54.6763 64.1985 54.8943L66.6031 59.3001C68.2109 62.2475 67.2457 65.9977 64.4878 67.6825C61.7493 69.3548 58.2358 68.3768 56.6361 65.4459L54.2313 61.0395L54.2311 61.0392C54.1068 60.812 53.8519 60.7286 53.6368 60.7895C53.4258 60.8492 53.2602 61.0437 53.2602 61.2881V66.3767C53.2602 69.7888 50.6571 72.5 47.4998 72.5C44.3425 72.5 41.7382 69.7887 41.7382 66.3767V61.2881C41.7382 61.0438 41.5728 60.8492 41.3617 60.7895C41.1465 60.7285 40.8916 60.8121 40.7674 61.0391L40.7672 61.0395L38.3622 65.4459C36.7639 68.3742 33.2489 69.3548 30.5091 67.6824C27.754 65.999 26.7886 62.2462 28.3965 59.3002L27.9577 59.0607L28.3966 59.3002L30.8014 54.8939L30.8018 54.8931C30.92 54.6755 30.861 54.4349 30.7233 54.2891C30.5814 54.1388 30.3173 54.0564 30.0779 54.203L25.9134 56.747L26.174 57.1737L25.9134 56.747C23.1738 58.4206 19.6613 57.4405 18.0603 54.5102C16.4538 51.567 17.4166 47.8127 20.1744 46.1268L24.3367 43.5853L24.3372 43.585C24.5631 43.4467 24.6147 43.1969 24.5689 43.0155C24.5227 42.8328 24.35 42.6246 24.0675 42.6246H19.3505C16.0675 42.6246 13.3524 39.7373 13.5062 36.2111L13.0067 36.1893L13.5062 36.2111C13.649 32.9385 16.193 30.3753 19.2603 30.3753H24.07C24.3525 30.3753 24.5252 30.1671 24.5714 29.9843C24.6172 29.803 24.5656 29.5532 24.3397 29.4149L24.3393 29.4146L20.1744 26.8703C17.4164 25.1855 16.4515 21.4328 18.0603 18.4898L18.0605 18.4893C19.659 15.5584 23.175 14.5793 25.9121 16.2515L25.9122 16.2515L30.0784 18.7959L30.0792 18.7964C30.3181 18.9417 30.5812 18.8598 30.7229 18.7101C30.8611 18.5642 30.9204 18.3228 30.8014 18.1048C30.8014 18.1047 30.8013 18.1046 30.8013 18.1045C30.8013 18.1045 30.8012 18.1044 30.8012 18.1043L28.3966 13.6985C28.3966 13.6985 28.3966 13.6985 28.3966 13.6984C26.7898 10.7534 27.7531 6.99946 30.5093 5.31623L30.5093 5.3162C33.2489 3.64263 36.7639 4.62432 38.3623 7.5528L40.7673 11.9592L40.7675 11.9596C40.8917 12.1866 41.1466 12.2701 41.3618 12.2092C41.5729 12.1494 41.7383 11.9548 41.7383 11.7105V6.6232C41.7383 3.21665 44.3452 0.5 47.4999 0.5C50.6545 0.5 53.2603 3.21652 53.2603 6.6232V11.7091C53.2603 11.9535 53.4259 12.1481 53.6369 12.2078C53.852 12.2687 54.1068 12.1853 54.2311 11.9582L54.2313 11.9577L56.635 7.55286C58.2346 4.62306 61.7509 3.64384 64.4879 5.31618L64.4881 5.31629C67.2455 6.99947 68.2087 10.7522 66.6007 13.6984L66.6006 13.6985L64.197 18.1049L64.1966 18.1056C64.0784 18.3232 64.1376 18.5638 64.2752 18.7096C64.4171 18.8599 64.6812 18.9422 64.9206 18.7956L69.085 16.2516C71.8248 14.5792 75.3409 15.5611 76.9381 18.4894L76.9382 18.4896C78.5459 21.434 77.5819 25.1855 74.8255 26.8702C74.8254 26.8703 74.8254 26.8703 74.8253 26.8704L70.6581 29.4145L70.6576 29.4149C70.4318 29.5531 70.3801 29.8029 70.4259 29.9842C70.472 30.167 70.6447 30.3753 70.9272 30.3753H75.7383Z" fill="#FAF307" stroke="#262626"/>
<path d="M41.9195 40.4679C44.8505 40.4679 47.2265 36.6592 47.2265 31.961C47.2265 27.2627 44.8505 23.454 41.9195 23.454C38.9886 23.454 36.6125 27.2627 36.6125 31.961C36.6125 36.6592 38.9886 40.4679 41.9195 40.4679Z" fill="white" stroke="#262626" stroke-miterlimit="10"/>
<path d="M52.5333 40.4679C55.4643 40.4679 57.8403 36.6592 57.8403 31.961C57.8403 27.2627 55.4643 23.454 52.5333 23.454C49.6023 23.454 47.2263 27.2627 47.2263 31.961C47.2263 36.6592 49.6023 40.4679 52.5333 40.4679Z" fill="white" stroke="#262626" stroke-miterlimit="10"/>
<path d="M40.785 32.6925C42.6462 32.6925 44.1549 30.7882 44.1549 28.439C44.1549 26.0899 42.6462 24.1855 40.785 24.1855C38.9238 24.1855 37.415 26.0899 37.415 28.439C37.415 30.7882 38.9238 32.6925 40.785 32.6925Z" fill="#0A0F09"/>
<path d="M51.5887 32.6925C53.4499 32.6925 54.9586 30.7881 54.9586 28.439C54.9586 26.0898 53.4499 24.1854 51.5887 24.1854C49.7275 24.1854 48.2188 26.0898 48.2188 28.439C48.2188 30.7881 49.7275 32.6925 51.5887 32.6925Z" fill="#0A0F09"/>
<path d="M49.8907 42.0217C49.8907 43.5786 48.6977 44.8408 47.2261 44.8408C45.7545 44.8408 44.5615 43.5786 44.5615 42.0217" stroke="#030009" stroke-miterlimit="10" stroke-linecap="round"/>
<path d="M62.3578 47.7836C64.8529 47.7836 66.8757 45.6436 66.8757 43.0038C66.8757 40.364 64.8529 38.224 62.3578 38.224C59.8626 38.224 57.8398 40.364 57.8398 43.0038C57.8398 45.6436 59.8626 47.7836 62.3578 47.7836Z" fill="#FFCF00"/>
<path d="M32.5345 47.7838C35.0297 47.7838 37.0524 45.6438 37.0524 43.0039C37.0524 40.3641 35.0297 38.2241 32.5345 38.2241C30.0393 38.2241 28.0166 40.3641 28.0166 43.0039C28.0166 45.6438 30.0393 47.7838 32.5345 47.7838Z" fill="#FFCF00"/>
<path d="M39.9654 26.7093C40.3944 26.7093 40.7421 26.3414 40.7421 25.8875C40.7421 25.4337 40.3944 25.0658 39.9654 25.0658C39.5365 25.0658 39.1887 25.4337 39.1887 25.8875C39.1887 26.3414 39.5365 26.7093 39.9654 26.7093Z" fill="white"/>
<path d="M50.6676 26.7093C51.0965 26.7093 51.4443 26.3414 51.4443 25.8875C51.4443 25.4337 51.0965 25.0658 50.6676 25.0658C50.2386 25.0658 49.8909 25.4337 49.8909 25.8875C49.8909 26.3414 50.2386 26.7093 50.6676 26.7093Z" fill="white"/>
<path d="M90.5 30.6134C90.5 31.7248 89.6028 32.6226 88.5 32.6226C87.3972 32.6226 86.5 31.7248 86.5 30.6134C86.5 29.5019 87.3972 28.6041 88.5 28.6041C89.6028 28.6041 90.5 29.5019 90.5 30.6134Z" fill="#FFBC00" stroke="black"/>
<path d="M81.5 8.53157C81.5 9.64302 80.6028 10.5409 79.5 10.5409C78.3972 10.5409 77.5 9.64302 77.5 8.53157C77.5 7.42012 78.3972 6.52228 79.5 6.52228C80.6028 6.52228 81.5 7.42012 81.5 8.53157Z" fill="#F06161" stroke="black"/>
<rect x="0.5" y="16.5594" width="3" height="4.01858" fill="#39E396" stroke="black"/>
<rect x="5.5" y="58.7156" width="5" height="4.01858" fill="#03A9F4" stroke="black"/>
</svg>
