<svg width="91" height="73" viewBox="0 0 91 73" fill="none" xmlns="http://www.w3.org/2000/svg">
<rect x="15.5" y="11.5" width="66" height="50" fill="#E7F7FF" stroke="black"/>
<path d="M15.918 12L49.1743 43L81.0824 12" stroke="black" stroke-linecap="round"/>
<path d="M49.2723 45.2128L49.2719 45.2131C48.802 45.524 48.1958 45.5242 47.7246 45.2129C46.7237 44.5516 45.1346 43.4321 43.564 42.0391C41.9878 40.6411 40.4601 38.9937 39.5512 37.2814L39.5512 37.2813C37.18 32.8164 40.0068 28.5868 43.4365 28.5868C45.4486 28.5868 46.6481 29.6271 47.3231 30.5373C47.4579 30.722 47.6344 30.8725 47.8382 30.9763C48.0428 31.0805 48.2692 31.1349 48.4989 31.1349C48.7285 31.1349 48.9549 31.0805 49.1595 30.9763C49.3634 30.8724 49.5399 30.722 49.6747 30.5372C50.3497 29.6271 51.5492 28.5868 53.5613 28.5868C56.991 28.5868 59.8177 32.8164 57.4475 37.2814C56.5376 38.9937 55.0099 40.6412 53.4337 42.0391C51.8631 43.4321 50.274 44.5516 49.2723 45.2128Z" fill="#FC7171" stroke="black"/>
</svg>
