<svg width="112" height="112" viewBox="0 0 112 112" fill="none" xmlns="http://www.w3.org/2000/svg">
<g id="Group">
<g id="Vector">
<mask id="path-1-inside-1_169_3480" fill="white">
<path d="M111.464 55.7321C111.464 50.1477 106.935 45.6168 101.349 45.6168H93.5771C93.5487 45.6168 93.5386 45.5791 93.5633 45.5649L100.295 41.68C105.132 38.8857 106.791 32.7031 103.996 27.866C101.206 23.031 95.0195 21.3709 90.1803 24.163L83.4521 28.0481C83.4274 28.0624 83.3999 28.0347 83.414 28.0101L87.2968 21.282C90.0911 16.4428 88.4353 10.258 83.596 7.46584C78.7611 4.67357 72.5742 6.32955 69.7801 11.1667L65.8971 17.8926C65.8828 17.9173 65.8452 17.9072 65.8452 17.8788V10.113C65.8452 4.53089 61.3164 0 55.732 0C50.1475 0 45.6168 4.53089 45.6168 10.113V17.8809C45.6168 17.9093 45.5792 17.9194 45.565 17.8948L41.6798 11.1667C38.8879 6.33169 32.7031 4.67163 27.8639 7.46584C23.0268 10.2581 21.3708 16.4447 24.1631 21.282L28.0479 28.0101C28.0621 28.0347 28.0345 28.0623 28.0099 28.0481L21.2796 24.163C16.4447 21.371 10.258 23.0267 7.4658 27.866C4.66936 32.7012 6.32931 38.8857 11.1686 41.68L17.8967 45.5649C17.9213 45.5791 17.9112 45.6168 17.8828 45.6168H10.1131C4.68371 45.6168 0.25844 49.8933 0.0108135 55.2577C-0.256406 61.0462 4.46421 65.8473 10.2587 65.8473H17.8787C17.9071 65.8473 17.9172 65.8849 17.8926 65.8992L11.1685 69.78C6.32922 72.5762 4.67343 78.7631 7.4657 83.5981C10.2619 88.4354 16.4424 90.0933 21.2817 87.2989L28.0098 83.4141C28.0344 83.3998 28.062 83.4275 28.0478 83.4521L24.163 90.1802C21.3686 95.0195 23.0286 101.204 27.8638 103.996C32.703 106.788 38.8878 105.131 41.6797 100.296L45.5649 93.5675C45.5791 93.5428 45.6167 93.5529 45.6167 93.5813V101.351C45.6167 106.942 50.1434 111.464 55.7319 111.464C61.3204 111.464 65.8451 106.942 65.8451 101.351V93.5813C65.8451 93.5529 65.8827 93.5428 65.897 93.5675L69.7818 100.296C72.5761 105.135 78.7587 106.788 83.5958 103.996C88.4351 101.202 90.095 95.0216 87.3009 90.1802L83.4159 83.4521C83.4016 83.4275 83.4293 83.3999 83.4539 83.4141L90.1801 87.2989C95.0213 90.0932 101.202 88.4333 103.996 83.5981C106.79 78.7589 105.134 72.5762 100.295 69.78L93.5671 65.8992C93.5425 65.8849 93.5526 65.8473 93.581 65.8473H101.349C106.935 65.8473 111.464 61.3206 111.464 55.7321Z"/>
</mask>
<path d="M111.464 55.7321C111.464 50.1477 106.935 45.6168 101.349 45.6168H93.5771C93.5487 45.6168 93.5386 45.5791 93.5633 45.5649L100.295 41.68C105.132 38.8857 106.791 32.7031 103.996 27.866C101.206 23.031 95.0195 21.3709 90.1803 24.163L83.4521 28.0481C83.4274 28.0624 83.3999 28.0347 83.414 28.0101L87.2968 21.282C90.0911 16.4428 88.4353 10.258 83.596 7.46584C78.7611 4.67357 72.5742 6.32955 69.7801 11.1667L65.8971 17.8926C65.8828 17.9173 65.8452 17.9072 65.8452 17.8788V10.113C65.8452 4.53089 61.3164 0 55.732 0C50.1475 0 45.6168 4.53089 45.6168 10.113V17.8809C45.6168 17.9093 45.5792 17.9194 45.565 17.8948L41.6798 11.1667C38.8879 6.33169 32.7031 4.67163 27.8639 7.46584C23.0268 10.2581 21.3708 16.4447 24.1631 21.282L28.0479 28.0101C28.0621 28.0347 28.0345 28.0623 28.0099 28.0481L21.2796 24.163C16.4447 21.371 10.258 23.0267 7.4658 27.866C4.66936 32.7012 6.32931 38.8857 11.1686 41.68L17.8967 45.5649C17.9213 45.5791 17.9112 45.6168 17.8828 45.6168H10.1131C4.68371 45.6168 0.25844 49.8933 0.0108135 55.2577C-0.256406 61.0462 4.46421 65.8473 10.2587 65.8473H17.8787C17.9071 65.8473 17.9172 65.8849 17.8926 65.8992L11.1685 69.78C6.32922 72.5762 4.67343 78.7631 7.4657 83.5981C10.2619 88.4354 16.4424 90.0933 21.2817 87.2989L28.0098 83.4141C28.0344 83.3998 28.062 83.4275 28.0478 83.4521L24.163 90.1802C21.3686 95.0195 23.0286 101.204 27.8638 103.996C32.703 106.788 38.8878 105.131 41.6797 100.296L45.5649 93.5675C45.5791 93.5428 45.6167 93.5529 45.6167 93.5813V101.351C45.6167 106.942 50.1434 111.464 55.7319 111.464C61.3204 111.464 65.8451 106.942 65.8451 101.351V93.5813C65.8451 93.5529 65.8827 93.5428 65.897 93.5675L69.7818 100.296C72.5761 105.135 78.7587 106.788 83.5958 103.996C88.4351 101.202 90.095 95.0216 87.3009 90.1802L83.4159 83.4521C83.4016 83.4275 83.4293 83.3999 83.4539 83.4141L90.1801 87.2989C95.0213 90.0932 101.202 88.4333 103.996 83.5981C106.79 78.7589 105.134 72.5762 100.295 69.78L93.5671 65.8992C93.5425 65.8849 93.5526 65.8473 93.581 65.8473H101.349C106.935 65.8473 111.464 61.3206 111.464 55.7321Z" fill="#FAF307"/>
<path d="M93.5633 45.5649L92.933 44.4728L92.9317 44.4736L93.5633 45.5649ZM100.295 41.68L100.926 42.7721L100.926 42.7718L100.295 41.68ZM103.996 27.866L102.904 28.4962L102.904 28.4967L103.996 27.866ZM90.1803 24.163L89.5501 23.0708L89.5497 23.0711L90.1803 24.163ZM83.4521 28.0481L82.8215 26.9562L82.8205 26.9568L83.4521 28.0481ZM83.414 28.0101L82.3219 27.3798L82.3208 27.3817L83.414 28.0101ZM87.2968 21.282L86.2049 20.6515L86.2047 20.6517L87.2968 21.282ZM83.596 7.46584L82.9654 8.55776L82.9659 8.55801L83.596 7.46584ZM69.7801 11.1667L68.6882 10.536L68.688 10.5362L69.7801 11.1667ZM65.8971 17.8926L66.9884 18.5242L66.9891 18.5231L65.8971 17.8926ZM45.565 17.8948L44.473 18.5253L44.4736 18.5264L45.565 17.8948ZM41.6798 11.1667L42.7718 10.5361L42.7718 10.5361L41.6798 11.1667ZM27.8639 7.46584L28.4943 8.55788L28.4944 8.55781L27.8639 7.46584ZM24.1631 21.282L23.071 21.9124L23.0711 21.9125L24.1631 21.282ZM28.0479 28.0101L26.9559 28.6406L26.9566 28.6417L28.0479 28.0101ZM28.0099 28.0481L27.3795 29.1402L27.3815 29.1413L28.0099 28.0481ZM21.2796 24.163L20.6491 25.255L20.6492 25.255L21.2796 24.163ZM7.4658 27.866L8.55733 28.4972L8.55797 28.4961L7.4658 27.866ZM11.1686 41.68L10.538 42.7719L10.538 42.7719L11.1686 41.68ZM17.8967 45.5649L18.5283 44.4736L18.5272 44.4729L17.8967 45.5649ZM0.0108135 55.2577L1.2704 55.3159L1.2704 55.3159L0.0108135 55.2577ZM17.8926 65.8992L18.5229 66.9912L18.5242 66.9905L17.8926 65.8992ZM11.1685 69.78L10.5382 68.6879L10.5376 68.6882L11.1685 69.78ZM7.4657 83.5981L6.37378 84.2287L6.37404 84.2291L7.4657 83.5981ZM21.2817 87.2989L20.6512 86.2069L20.6511 86.207L21.2817 87.2989ZM28.0098 83.4141L28.6403 84.5061L28.6414 84.5054L28.0098 83.4141ZM28.0478 83.4521L29.1398 84.0826L29.141 84.0805L28.0478 83.4521ZM24.163 90.1802L25.2549 90.8108L25.2549 90.8107L24.163 90.1802ZM27.8638 103.996L27.2332 105.088L27.2337 105.089L27.8638 103.996ZM41.6797 100.296L42.7717 100.926L42.7717 100.926L41.6797 100.296ZM45.5649 93.5675L44.4735 92.9359L44.4729 92.9369L45.5649 93.5675ZM65.897 93.5675L66.989 92.937L66.9883 92.9359L65.897 93.5675ZM69.7818 100.296L68.6898 100.926L68.6898 100.926L69.7818 100.296ZM83.5958 103.996L84.2262 105.088L84.2263 105.088L83.5958 103.996ZM87.3009 90.1802L88.393 89.5499L88.3929 89.5497L87.3009 90.1802ZM83.4159 83.4521L84.5079 82.8216L84.5072 82.8205L83.4159 83.4521ZM83.4539 83.4141L84.0846 82.3222L84.0823 82.3209L83.4539 83.4141ZM90.1801 87.2989L89.5494 88.3908L89.5498 88.391L90.1801 87.2989ZM103.996 83.5981L105.088 84.229L105.088 84.2286L103.996 83.5981ZM100.295 69.78L100.926 68.6882L100.925 68.6878L100.295 69.78ZM93.5671 65.8992L92.9355 66.9905L92.9371 66.9914L93.5671 65.8992ZM112.725 55.7321C112.725 49.4515 107.632 44.3559 101.349 44.3559V46.8777C106.239 46.8777 110.203 50.8439 110.203 55.7321H112.725ZM101.349 44.3559H93.5771V46.8777H101.349V44.3559ZM93.5771 44.3559C94.8462 44.3559 95.2791 46.0287 94.1949 46.6562L92.9317 44.4736C91.7981 45.1296 92.2512 46.8777 93.5771 46.8777V44.3559ZM94.1935 46.657L100.926 42.7721L99.6651 40.5879L92.933 44.4728L94.1935 46.657ZM100.926 42.7718C106.366 39.6295 108.231 32.6759 105.088 27.2352L102.904 28.4967C105.35 32.7302 103.899 38.1418 99.6646 40.5881L100.926 42.7718ZM105.088 27.2357C101.95 21.7974 94.9923 19.9309 89.5501 23.0708L90.8104 25.2552C95.0467 22.811 100.462 24.2645 102.904 28.4962L105.088 27.2357ZM89.5497 23.0711L82.8215 26.9562L84.0826 29.1401L90.8108 25.255L89.5497 23.0711ZM82.8205 26.9568C83.9238 26.3183 85.1289 27.557 84.5072 28.6385L82.3208 27.3817C81.6709 28.5124 82.9311 29.8065 84.0837 29.1395L82.8205 26.9568ZM84.5062 28.6404L88.3889 21.9123L86.2047 20.6517L82.3219 27.3798L84.5062 28.6404ZM88.3888 21.9125C91.5311 16.4705 89.6692 9.51423 84.2262 6.37368L82.9659 8.55801C87.2013 11.0018 88.6511 16.415 86.2049 20.6515L88.3888 21.9125ZM84.2266 6.37393C78.7886 3.23337 71.8306 5.09595 68.6882 10.536L70.8719 11.7974C73.3178 7.56316 78.7335 6.11377 82.9654 8.55776L84.2266 6.37393ZM68.688 10.5362L64.8051 17.2622L66.9891 18.5231L70.8721 11.7971L68.688 10.5362ZM64.8057 17.261C65.4344 16.1748 67.1061 16.6119 67.1061 17.8788H64.5843C64.5843 19.2024 66.3313 19.6597 66.9884 18.5242L64.8057 17.261ZM67.1061 17.8788V10.113H64.5843V17.8788H67.1061ZM67.1061 10.113C67.1061 3.83466 62.013 -1.26093 55.732 -1.26093V1.26093C60.6199 1.26093 64.5843 5.22712 64.5843 10.113H67.1061ZM55.732 -1.26093C49.4513 -1.26093 44.3559 3.83434 44.3559 10.113H46.8778C46.8778 5.22744 50.8438 1.26093 55.732 1.26093V-1.26093ZM44.3559 10.113V17.8809H46.8778V10.113H44.3559ZM44.3559 17.8809C44.3559 16.6151 46.0271 16.176 46.6563 17.2632L44.4736 18.5264C45.1313 19.6627 46.8778 19.2035 46.8778 17.8809H44.3559ZM46.6569 17.2642L42.7718 10.5361L40.5879 11.7972L44.473 18.5253L46.6569 17.2642ZM42.7718 10.5361C39.6317 5.09838 32.676 3.23129 27.2334 6.37388L28.4944 8.55781C32.7303 6.11198 38.144 7.565 40.5879 11.7972L42.7718 10.5361ZM27.2335 6.37381C21.7929 9.51448 19.9309 16.4724 23.071 21.9124L25.2551 20.6516C22.8107 16.417 24.2607 11.0017 28.4943 8.55788L27.2335 6.37381ZM23.0711 21.9125L26.9559 28.6406L29.1399 27.3796L25.255 20.6515L23.0711 21.9125ZM26.9566 28.6417C26.3172 27.537 27.5582 26.3341 28.6382 26.9549L27.3815 29.1413C28.5107 29.7904 29.8071 28.5325 29.1392 27.3785L26.9566 28.6417ZM28.6402 26.9561L21.91 23.071L20.6492 25.255L27.3795 29.1402L28.6402 26.9561ZM21.9102 23.0711C16.4722 19.9309 9.51407 21.793 6.37364 27.2358L8.55797 28.4961C11.0019 24.2605 16.4171 22.8112 20.6491 25.255L21.9102 23.0711ZM6.37428 27.2347C3.22832 32.6743 5.09665 39.6299 10.538 42.7719L11.7991 40.588C7.56198 38.1414 6.11041 32.7282 8.55733 28.4972L6.37428 27.2347ZM10.538 42.7719L17.2661 46.6569L18.5272 44.4729L11.7991 40.588L10.538 42.7719ZM17.2651 46.6562C16.1792 46.0278 16.6155 44.3559 17.8828 44.3559V46.8777C19.2069 46.8777 19.6633 45.1305 18.5283 44.4736L17.2651 46.6562ZM17.8828 44.3559H10.1131V46.8777H17.8828V44.3559ZM10.1131 44.3559C4.00617 44.3559 -0.970249 49.1658 -1.24877 55.1996L1.2704 55.3159C1.48713 50.6207 5.36126 46.8777 10.1131 46.8777V44.3559ZM-1.24877 55.1996C-1.55018 61.7286 3.7674 67.1082 10.2587 67.1082V64.5863C5.16102 64.5863 1.03737 60.3637 1.2704 55.3159L-1.24877 55.1996ZM10.2587 67.1082H17.8787V64.5863H10.2587V67.1082ZM17.8787 67.1082C16.6119 67.1082 16.1748 65.4365 17.261 64.8078L18.5242 66.9905C19.6597 66.3333 19.2024 64.5863 17.8787 64.5863V67.1082ZM17.2623 64.8071L10.5382 68.6879L11.7988 70.8721L18.5229 66.9912L17.2623 64.8071ZM10.5376 68.6882C5.09583 71.8326 3.23311 78.7904 6.37378 84.2287L8.55761 82.9675C6.11374 78.7358 7.56261 73.3198 11.7993 70.8718L10.5376 68.6882ZM6.37404 84.2291C9.51829 89.6684 16.4694 91.5338 21.9122 88.3909L20.6511 86.207C16.4154 88.6528 11.0056 87.2023 8.55735 82.967L6.37404 84.2291ZM21.9122 88.3909L28.6403 84.5061L27.3793 82.3221L20.6512 86.2069L21.9122 88.3909ZM28.6414 84.5054C27.5389 85.1434 26.3325 83.906 26.9546 82.8237L29.141 84.0805C29.7914 82.9489 28.5299 81.6562 27.3782 82.3228L28.6414 84.5054ZM26.9558 82.8216L23.071 89.5497L25.2549 90.8107L29.1398 84.0826L26.9558 82.8216ZM23.071 89.5497C19.9282 94.9923 21.7953 101.948 27.2332 105.088L28.4943 102.904C24.2619 100.46 22.8089 95.0466 25.2549 90.8108L23.071 89.5497ZM27.2337 105.089C32.6756 108.228 39.6314 106.364 42.7717 100.926L40.5878 99.665C38.1441 103.897 32.7304 105.348 28.4939 102.904L27.2337 105.089ZM42.7717 100.926L46.6568 94.198L44.4729 92.9369L40.5878 99.665L42.7717 100.926ZM46.6562 94.1991C46.0272 95.286 44.3558 94.8473 44.3558 93.5813H46.8777C46.8777 92.2585 45.1311 91.7997 44.4735 92.9359L46.6562 94.1991ZM44.3558 93.5813V101.351H46.8777V93.5813H44.3558ZM44.3558 101.351C44.3558 107.639 49.4475 112.725 55.7319 112.725V110.203C50.8393 110.203 46.8777 106.245 46.8777 101.351H44.3558ZM55.7319 112.725C62.0166 112.725 67.106 107.638 67.106 101.351H64.5842C64.5842 106.245 60.6242 110.203 55.7319 110.203V112.725ZM67.106 101.351V93.5813H64.5842V101.351H67.106ZM67.106 93.5813C67.106 94.8479 65.4344 95.2854 64.8057 94.1991L66.9883 92.9359C66.3311 91.8002 64.5842 92.2579 64.5842 93.5813H67.106ZM64.805 94.198L68.6898 100.926L70.8738 99.665L66.989 92.937L64.805 94.198ZM68.6898 100.926C71.8326 106.369 78.7864 108.228 84.2262 105.088L82.9655 102.904C78.731 105.349 73.3197 103.901 70.8738 99.665L68.6898 100.926ZM84.2263 105.088C89.668 101.946 91.5355 94.9949 88.393 89.5499L86.2088 90.8105C88.6545 95.0483 87.2021 100.458 82.9653 102.904L84.2263 105.088ZM88.3929 89.5497L84.5079 82.8216L82.3239 84.0826L86.2089 90.8107L88.3929 89.5497ZM84.5072 82.8205C85.1467 83.9255 83.9053 85.1279 82.8256 84.5073L84.0823 82.3209C82.9533 81.672 81.6565 82.9295 82.3246 84.0837L84.5072 82.8205ZM82.8233 84.506L89.5494 88.3908L90.8107 86.207L84.0846 82.3222L82.8233 84.506ZM89.5498 88.391C94.9944 91.5336 101.946 89.6663 105.088 84.229L102.904 82.9672C100.458 87.2002 95.0481 88.6528 90.8104 86.2068L89.5498 88.391ZM105.088 84.2286C108.231 78.7862 106.368 71.8327 100.926 68.6882L99.6643 70.8718C103.901 73.3198 105.35 78.7315 102.904 82.9676L105.088 84.2286ZM100.925 68.6878L94.1971 64.8069L92.9371 66.9914L99.6651 70.8722L100.925 68.6878ZM94.1987 64.8078C95.2855 65.4368 94.8471 67.1082 93.581 67.1082V64.5863C92.258 64.5863 91.7994 66.333 92.9355 66.9905L94.1987 64.8078ZM93.581 67.1082H101.349V64.5863H93.581V67.1082ZM101.349 67.1082C107.631 67.1082 112.725 62.0173 112.725 55.7321H110.203C110.203 60.624 106.239 64.5863 101.349 64.5863V67.1082Z" fill="#262626" mask="url(#path-1-inside-1_169_3480)"/>
</g>
<g id="Group_2">
<g id="Group_3">
<path id="Vector_2" d="M46.7164 61.791C51.4512 61.791 55.2895 55.9755 55.2895 48.8016C55.2895 41.6278 51.4512 35.8123 46.7164 35.8123C41.9817 35.8123 38.1434 41.6278 38.1434 48.8016C38.1434 55.9755 41.9817 61.791 46.7164 61.791Z" fill="white" stroke="#262626" stroke-width="1.26093" stroke-miterlimit="10"/>
<path id="Vector_3" d="M63.8627 61.791C68.5975 61.791 72.4358 55.9755 72.4358 48.8016C72.4358 41.6278 68.5975 35.8123 63.8627 35.8123C59.128 35.8123 55.2897 41.6278 55.2897 48.8016C55.2897 55.9755 59.128 61.791 63.8627 61.791Z" fill="white" stroke="#262626" stroke-width="1.26093" stroke-miterlimit="10"/>
<path id="Vector_4" d="M44.885 49.9188C47.8916 49.9188 50.3289 47.011 50.3289 43.4241C50.3289 39.8371 47.8916 36.9293 44.885 36.9293C41.8784 36.9293 39.4411 39.8371 39.4411 43.4241C39.4411 47.011 41.8784 49.9188 44.885 49.9188Z" fill="#0A0F09"/>
<path id="Vector_5" d="M62.3366 49.9188C65.3432 49.9188 67.7805 47.011 67.7805 43.4241C67.7805 39.8371 65.3432 36.9293 62.3366 36.9293C59.33 36.9293 56.8927 39.8371 56.8927 43.4241C56.8927 47.011 59.33 49.9188 62.3366 49.9188Z" fill="#0A0F09"/>
<path id="Vector_6" d="M59.594 64.1635C59.594 66.5407 57.6668 68.4679 55.2896 68.4679C52.9123 68.4679 50.9852 66.5407 50.9852 64.1635" stroke="#030009" stroke-width="1.26093" stroke-miterlimit="10" stroke-linecap="round"/>
<path id="Vector_7" d="M79.7341 72.9618C83.7648 72.9618 87.0324 69.6942 87.0324 65.6634C87.0324 61.6327 83.7648 58.3651 79.7341 58.3651C75.7033 58.3651 72.4357 61.6327 72.4357 65.6634C72.4357 69.6942 75.7033 72.9618 79.7341 72.9618Z" fill="#FFCF00"/>
<path id="Vector_8" d="M31.5559 72.9618C35.5866 72.9618 38.8542 69.6942 38.8542 65.6634C38.8542 61.6327 35.5866 58.3651 31.5559 58.3651C27.5251 58.3651 24.2575 61.6327 24.2575 65.6634C24.2575 69.6942 27.5251 72.9618 31.5559 72.9618Z" fill="#FFCF00"/>
</g>
<path id="Vector_9" d="M43.5607 40.783C44.2537 40.783 44.8154 40.2212 44.8154 39.5283C44.8154 38.8353 44.2537 38.2736 43.5607 38.2736C42.8678 38.2736 42.306 38.8353 42.306 39.5283C42.306 40.2212 42.8678 40.783 43.5607 40.783Z" fill="white"/>
<path id="Vector_10" d="M60.8487 40.783C61.5417 40.783 62.1034 40.2212 62.1034 39.5283C62.1034 38.8353 61.5417 38.2736 60.8487 38.2736C60.1557 38.2736 59.594 38.8353 59.594 39.5283C59.594 40.2212 60.1557 40.783 60.8487 40.783Z" fill="white"/>
</g>
</g>
</svg>
