<svg width="16" height="16" viewBox="0 0 16 16" fill="currentColor" xmlns="http://www.w3.org/2000/svg">
<path fill-rule="evenodd" clip-rule="evenodd" d="M13.3999 5.75001C13.4 5.86819 13.3767 5.98521 13.3314 6.09435C13.2861 6.2035 13.2197 6.30262 13.1359 6.38601L8.63594 10.886C8.55237 10.9696 8.45314 11.0359 8.34393 11.0812C8.23471 11.1264 8.11766 11.1497 7.99944 11.1497C7.88123 11.1497 7.76417 11.1264 7.65496 11.0812C7.54575 11.0359 7.44652 10.9696 7.36294 10.886L2.86294 6.38601C2.77646 6.30309 2.7074 6.20374 2.65982 6.09378C2.61224 5.98382 2.5871 5.86547 2.58586 5.74566C2.58463 5.62585 2.60732 5.50701 2.65262 5.39609C2.69792 5.28517 2.76492 5.18441 2.84967 5.09973C2.93442 5.01504 3.03523 4.94813 3.14619 4.90291C3.25714 4.8577 3.376 4.8351 3.49581 4.83643C3.61561 4.83776 3.73395 4.863 3.84387 4.91066C3.95379 4.95833 4.05309 5.02746 4.13594 5.11401L7.99994 8.97701L11.8629 5.11401C11.9888 4.98796 12.1491 4.90207 12.3238 4.86721C12.4984 4.83235 12.6795 4.85009 12.8441 4.91819C13.0086 4.98628 13.1493 5.10167 13.2482 5.24974C13.3472 5.39782 13.4 5.57192 13.3999 5.75001Z" fill="#737373"/>
</svg>
