<svg width="26" height="26" viewBox="0 0 26 26" fill="none" xmlns="http://www.w3.org/2000/svg">
<path fill-rule="evenodd" clip-rule="evenodd" d="M14.9661 13L21.0881 6.87805C21.2088 6.75734 21.3047 6.61402 21.3701 6.45627C21.4355 6.29853 21.4691 6.12944 21.4692 5.95868C21.4692 5.78792 21.4357 5.61882 21.3704 5.46103C21.3051 5.30325 21.2093 5.15987 21.0886 5.03909C20.9679 4.91831 20.8246 4.82248 20.6668 4.75709C20.5091 4.69169 20.34 4.65801 20.1692 4.65796C19.9985 4.65791 19.8294 4.69149 19.6716 4.75679C19.5138 4.8221 19.3704 4.91784 19.2496 5.03855L13.1277 11.1615L7.00473 5.03855C6.75812 4.80821 6.43166 4.68269 6.09425 4.68849C5.75685 4.6943 5.4349 4.83096 5.19635 5.06965C4.9578 5.30834 4.82133 5.63037 4.81572 5.96778C4.81012 6.30519 4.93582 6.63157 5.16631 6.87805L11.2893 13L5.16631 19.1219C4.98535 19.3041 4.86231 19.5357 4.81266 19.7877C4.76301 20.0397 4.78896 20.3007 4.88727 20.5379C4.98557 20.7752 5.15183 20.9781 5.36513 21.1211C5.57843 21.2641 5.82926 21.3408 6.08606 21.3416C6.41865 21.3416 6.75123 21.2149 7.00473 20.9614L13.1277 14.8384L19.2496 20.9614C19.3702 21.0823 19.5135 21.1783 19.6712 21.2438C19.829 21.3093 19.9981 21.343 20.1689 21.343C20.3396 21.343 20.5088 21.3093 20.6665 21.2438C20.8242 21.1783 20.9675 21.0823 21.0881 20.9614C21.2089 20.8406 21.3048 20.6973 21.3702 20.5395C21.4357 20.3816 21.4693 20.2125 21.4693 20.0416C21.4693 19.8708 21.4357 19.7016 21.3702 19.5438C21.3048 19.386 21.2089 19.2426 21.0881 19.1219L14.9661 13Z" fill="#D4D4D4"/>
</svg>
