<svg width="22" height="22" viewBox="0 0 22 22" fill="none" xmlns="http://www.w3.org/2000/svg">
<path fill-rule="evenodd" clip-rule="evenodd" d="M4.79415 12.8334C4.55333 12.8333 4.31488 12.7858 4.09242 12.6936C3.86996 12.6014 3.66784 12.4663 3.4976 12.2959C3.32736 12.1256 3.19233 11.9234 3.10023 11.7009C3.00813 11.4784 2.96076 11.2399 2.96082 10.9991C2.96088 10.7583 3.00837 10.5198 3.10058 10.2974C3.19279 10.0749 3.32792 9.87279 3.49824 9.70255C3.66857 9.53231 3.87076 9.39729 4.09327 9.30519C4.31578 9.21308 4.55425 9.16571 4.79507 9.16577C5.28142 9.16589 5.7478 9.35921 6.09162 9.7032C6.43543 10.0472 6.62852 10.5137 6.6284 11C6.62828 11.4864 6.43496 11.9528 6.09097 12.2966C5.74698 12.6404 5.2805 12.8335 4.79415 12.8334ZM11.0009 12.8334C10.5147 12.8334 10.0484 12.6402 9.70454 12.2964C9.36072 11.9526 9.16757 11.4863 9.16757 11C9.16757 10.5138 9.36072 10.0475 9.70454 9.70366C10.0484 9.35984 10.5147 9.16669 11.0009 9.16669C11.4871 9.16669 11.9534 9.35984 12.2973 9.70366C12.6411 10.0475 12.8342 10.5138 12.8342 11C12.8342 11.4863 12.6411 11.9526 12.2973 12.2964C11.9534 12.6402 11.4871 12.8334 11.0009 12.8334ZM17.2067 12.8334C16.9659 12.8333 16.7275 12.7858 16.505 12.6936C16.2825 12.6014 16.0804 12.4663 15.9102 12.2959C15.7399 12.1256 15.6049 11.9234 15.5128 11.7009C15.4207 11.4784 15.3733 11.2399 15.3734 10.9991C15.3735 10.7583 15.4209 10.5198 15.5132 10.2974C15.6054 10.0749 15.7405 9.87279 15.9108 9.70255C16.0812 9.53231 16.2833 9.39729 16.5059 9.30519C16.7284 9.21308 16.9668 9.16571 17.2076 9.16577C17.694 9.16589 18.1604 9.35921 18.5042 9.7032C18.848 10.0472 19.0411 10.5137 19.041 11C19.0409 11.4864 18.8475 11.9528 18.5036 12.2966C18.1596 12.6404 17.6931 12.8335 17.2067 12.8334Z" fill="#A3A3A3"/>
</svg>
