<svg width="16" height="16" viewBox="0 0 16 16" fill="none" xmlns="http://www.w3.org/2000/svg">
<g id="icon-arrow-right-small-mono">
<path id="Vector" fill-rule="evenodd" clip-rule="evenodd" d="M5.75 13.4C5.52 13.4 5.29 13.31 5.11 13.14C4.94207 12.9713 4.84779 12.743 4.84779 12.505C4.84779 12.267 4.94207 12.0387 5.11 11.87L8.98 8L5.11 4.14C4.94207 3.97133 4.84779 3.74301 4.84779 3.505C4.84779 3.26699 4.94207 3.03867 5.11 2.87C5.27866 2.70207 5.50699 2.60779 5.745 2.60779C5.98301 2.60779 6.21133 2.70207 6.38 2.87L10.88 7.37C11.0479 7.53867 11.1422 7.76699 11.1422 8.005C11.1422 8.24301 11.0479 8.47133 10.88 8.64L6.38 13.14C6.21 13.31 5.98 13.4 5.75 13.4Z" fill="#A3A3A3"/>
</g>
</svg>
