<svg width="25" height="25" viewBox="0 0 25 25" fill="none" xmlns="http://www.w3.org/2000/svg">
<g id="icon-refresh-mono">
<path id="Vector" fill-rule="evenodd" clip-rule="evenodd" d="M21.8407 12.8699C21.5141 12.813 21.1784 12.8882 20.9072 13.0787C20.6361 13.2692 20.4518 13.5596 20.3948 13.886C20.0705 15.7482 19.098 17.436 17.6492 18.651C16.2004 19.8661 14.3685 20.5302 12.4771 20.526C8.04588 20.526 4.44067 16.9228 4.44067 12.493C4.44067 8.06421 8.04588 4.46101 12.4771 4.46101C14.4917 4.46101 16.3865 5.20435 17.8678 6.54735L16.8344 7.5801C16.6992 7.7147 16.6041 7.88414 16.5595 8.06958C16.5149 8.25501 16.5227 8.44917 16.582 8.63045C16.6413 8.81173 16.7497 8.97302 16.8952 9.09637C17.0408 9.21972 17.2177 9.30029 17.4063 9.32913L21.7938 10.0058C21.9541 10.0305 22.1179 10.0171 22.272 9.96662C22.4262 9.91614 22.5662 9.83005 22.6808 9.71534C22.7953 9.60063 22.8812 9.46053 22.9314 9.30641C22.9817 9.1523 22.9948 8.98851 22.9698 8.82836L22.2938 4.44436C22.2648 4.25597 22.1841 4.0793 22.0607 3.93396C21.9373 3.78862 21.776 3.68028 21.5947 3.62098C21.4135 3.56167 21.2193 3.55371 21.0338 3.59798C20.8483 3.64224 20.6787 3.73701 20.5438 3.87176L19.6355 4.78063C17.6941 2.96666 15.1348 1.95906 12.4771 1.96241C6.66776 1.96241 1.94067 6.68685 1.94067 12.493C1.94067 18.3002 6.66776 23.0236 12.4771 23.0236C17.6105 23.0236 21.975 19.361 22.8573 14.3149C22.9142 13.9885 22.839 13.653 22.6484 13.382C22.4577 13.111 22.1672 12.9268 21.8407 12.8699Z" fill="#00F6BF"/>
</g>
</svg>
