<svg width="21" height="21" viewBox="0 0 21 21" fill="none" xmlns="http://www.w3.org/2000/svg">
<g id="Group">
<path id="Vector" fill-rule="evenodd" clip-rule="evenodd" d="M16.9176 20.5522H4.08114C2.07176 20.5522 0.435303 18.9177 0.435303 16.9084V4.0791C0.435303 2.06981 2.07176 0.435303 4.08114 0.435303H7.2478C7.5517 0.435303 7.84314 0.555957 8.05803 0.770722C8.27291 0.985488 8.39364 1.27677 8.39364 1.5805C8.39364 1.88422 8.27291 2.1755 8.05803 2.39027C7.84314 2.60504 7.5517 2.72569 7.2478 2.72569H4.08114C3.33426 2.72569 2.72697 3.33264 2.72697 4.0791V16.9084C2.72697 17.6538 3.33426 18.2618 4.08114 18.2618H16.9176C17.6645 18.2618 18.2718 17.6538 18.2718 16.9084V13.7404C18.2718 13.4366 18.3925 13.1454 18.6074 12.9306C18.8223 12.7158 19.1137 12.5952 19.4176 12.5952C19.7215 12.5952 20.0129 12.7158 20.2278 12.9306C20.4427 13.1454 20.5634 13.4366 20.5634 13.7404V16.9084C20.5634 18.9177 18.928 20.5522 16.9176 20.5522Z" fill="#00F6BF"/>
<path id="Vector_2" fill-rule="evenodd" clip-rule="evenodd" d="M10.6989 11.4395C10.4723 11.4396 10.2507 11.3724 10.0622 11.2466C9.87366 11.1208 9.72673 10.9419 9.63998 10.7326C9.55322 10.5233 9.53053 10.293 9.57477 10.0708C9.61902 9.84858 9.72821 9.64449 9.88853 9.48433L18.6073 0.770448C18.7132 0.661841 18.8396 0.575341 18.9793 0.515968C19.1189 0.456595 19.2689 0.425533 19.4207 0.424583C19.5724 0.423633 19.7228 0.452816 19.8632 0.510436C20.0036 0.568057 20.1311 0.652968 20.2383 0.76024C20.3456 0.867513 20.4305 0.995011 20.488 1.13533C20.5456 1.27566 20.5747 1.42601 20.5737 1.57766C20.5726 1.72932 20.5414 1.87925 20.4819 2.01877C20.4224 2.15828 20.3358 2.28459 20.2271 2.39038L11.5094 11.1043C11.4032 11.2107 11.2771 11.2951 11.1382 11.3526C10.9993 11.4102 10.8503 11.4397 10.7 11.4395" fill="#00F6BF"/>
<path id="Vector_3" fill-rule="evenodd" clip-rule="evenodd" d="M19.4176 10.4297C19.1138 10.4297 18.8223 10.3091 18.6074 10.0943C18.3925 9.87953 18.2718 9.58825 18.2718 9.28452V2.72569H11.7093C11.4054 2.72569 11.114 2.60504 10.8991 2.39027C10.6842 2.1755 10.5635 1.88422 10.5635 1.5805C10.5635 1.27677 10.6842 0.985488 10.8991 0.770722C11.114 0.555957 11.4054 0.435303 11.7093 0.435303H19.4176C19.7215 0.435303 20.013 0.555957 20.2279 0.770722C20.4428 0.985488 20.5635 1.27677 20.5635 1.5805V9.28452C20.5635 9.58825 20.4428 9.87953 20.2279 10.0943C20.013 10.3091 19.7215 10.4297 19.4176 10.4297Z" fill="#00F6BF"/>
</g>
</svg>
