<svg width="24" height="24" viewBox="0 0 24 24" fill="none" xmlns="http://www.w3.org/2000/svg">
<path fill-rule="evenodd" fill="currentColor" clip-rule="evenodd" d="M13.154 1.92701L15.481 6.64201C15.668 7.02101 16.03 7.28401 16.449 7.34501L21.6521 8.10101C22.7061 8.25401 23.128 9.55101 22.364 10.294L18.5991 13.964C18.4498 14.1095 18.3382 14.2892 18.2737 14.4874C18.2093 14.6856 18.194 14.8965 18.229 15.102L19.118 20.284C19.298 21.335 18.1961 22.135 17.253 21.64L12.599 19.193C12.4147 19.096 12.2094 19.0452 12.001 19.0452C11.7927 19.0452 11.5874 19.096 11.403 19.193L6.74905 21.64C5.80505 22.135 4.70305 21.335 4.88305 20.284L5.77205 15.102C5.80706 14.8965 5.79168 14.6856 5.72723 14.4874C5.66279 14.2892 5.5512 14.1096 5.40205 13.964L1.63705 10.294C0.87405 9.55101 1.29505 8.25401 2.35005 8.10101L7.55205 7.34501C7.97105 7.28401 8.33405 7.02101 8.52105 6.64201L10.847 1.92701C11.319 0.971007 12.682 0.971007 13.154 1.92701Z"/>
</svg>
