<svg width="34" height="34" viewBox="0 0 34 34" fill="#d4d4d4" xmlns="http://www.w3.org/2000/svg">
<path fill="currentColor" d="M32.5834 17C32.5834 8.35834 25.6417 1.41667 17 1.41667C8.35838 1.41667 1.41671 8.35834 1.41671 17C1.41671 25.6417 8.35837 32.5833 17 32.5833C25.6417 32.5833 32.5834 25.6417 32.5834 17ZM15.5834 23.375L15.5834 14.025L12.325 17.2833C11.7584 17.85 10.9084 17.85 10.3417 17.2833C10.0584 17 9.91671 16.575 9.91671 16.2917C9.91671 16.0083 10.0584 15.5833 10.3417 15.3L16.0084 9.63334C16.575 9.06667 17.425 9.06667 17.9917 9.63334L23.6584 15.3C24.225 15.8667 24.225 16.7167 23.6584 17.2833C23.0917 17.85 22.2417 17.85 21.675 17.2833L18.4167 14.025L18.4167 23.375C18.4167 24.225 17.85 24.7917 17 24.7917C16.15 24.7917 15.5834 24.0833 15.5834 23.375Z"/>
</svg>
